%TF.GenerationSoftware,KiCad,Pcbnew,(5.1.6)-1*%
%TF.CreationDate,2020-07-09T12:21:52-07:00*%
%TF.ProjectId,guide,67756964-652e-46b6-9963-61645f706362,rev?*%
%TF.SameCoordinates,Original*%
%TF.FileFunction,Soldermask,Bot*%
%TF.FilePolarity,Negative*%
%FSLAX46Y46*%
G04 Gerber Fmt 4.6, Leading zero omitted, Abs format (unit mm)*
G04 Created by KiCad (PCBNEW (5.1.6)-1) date 2020-07-09 12:21:52*
%MOMM*%
%LPD*%
G01*
G04 APERTURE LIST*
%ADD10R,1.500000X1.300000*%
%ADD11O,1.800000X2.800000*%
%ADD12R,0.600000X2.350000*%
%ADD13R,0.650000X1.600000*%
%ADD14R,1.600000X0.650000*%
%ADD15R,1.900000X1.200000*%
%ADD16C,1.850000*%
%ADD17C,2.350000*%
%ADD18C,4.087800*%
%ADD19R,1.300000X1.000000*%
G04 APERTURE END LIST*
D10*
%TO.C,Y1*%
X76687500Y-97687500D03*
X78887500Y-97687500D03*
X78887500Y-95987500D03*
X76687500Y-95987500D03*
%TD*%
D11*
%TO.C,USB1*%
X83726000Y-65278000D03*
X91026000Y-65278000D03*
X91026000Y-69778000D03*
X83726000Y-69778000D03*
D12*
X85776000Y-69778000D03*
X86576000Y-69778000D03*
X87376000Y-69778000D03*
X88176000Y-69778000D03*
X88976000Y-69778000D03*
%TD*%
D13*
%TO.C,U1*%
X81787500Y-80025000D03*
X80987500Y-80025000D03*
X80187500Y-80025000D03*
X79387500Y-80025000D03*
X78587500Y-80025000D03*
X77787500Y-80025000D03*
X76987500Y-80025000D03*
X76187500Y-80025000D03*
X75387500Y-80025000D03*
X74587500Y-80025000D03*
X73787500Y-80025000D03*
D14*
X72087500Y-81725000D03*
X72087500Y-82525000D03*
X72087500Y-83325000D03*
X72087500Y-84125000D03*
X72087500Y-84925000D03*
X72087500Y-85725000D03*
X72087500Y-86525000D03*
X72087500Y-87325000D03*
X72087500Y-88125000D03*
X72087500Y-88925000D03*
X72087500Y-89725000D03*
D13*
X73787500Y-91425000D03*
X74587500Y-91425000D03*
X75387500Y-91425000D03*
X76187500Y-91425000D03*
X76987500Y-91425000D03*
X77787500Y-91425000D03*
X78587500Y-91425000D03*
X79387500Y-91425000D03*
X80187500Y-91425000D03*
X80987500Y-91425000D03*
X81787500Y-91425000D03*
D14*
X83487500Y-89725000D03*
X83487500Y-88925000D03*
X83487500Y-88125000D03*
X83487500Y-87325000D03*
X83487500Y-86525000D03*
X83487500Y-85725000D03*
X83487500Y-84925000D03*
X83487500Y-84125000D03*
X83487500Y-83325000D03*
X83487500Y-82525000D03*
X83487500Y-81725000D03*
%TD*%
D15*
%TO.C,SW1*%
X68187500Y-94718750D03*
X61987500Y-91018750D03*
X68187500Y-91018750D03*
X61987500Y-94718750D03*
%TD*%
%TO.C,R4*%
G36*
G01*
X66193750Y-80425000D02*
X67156250Y-80425000D01*
G75*
G02*
X67425000Y-80693750I0J-268750D01*
G01*
X67425000Y-81231250D01*
G75*
G02*
X67156250Y-81500000I-268750J0D01*
G01*
X66193750Y-81500000D01*
G75*
G02*
X65925000Y-81231250I0J268750D01*
G01*
X65925000Y-80693750D01*
G75*
G02*
X66193750Y-80425000I268750J0D01*
G01*
G37*
G36*
G01*
X66193750Y-78550000D02*
X67156250Y-78550000D01*
G75*
G02*
X67425000Y-78818750I0J-268750D01*
G01*
X67425000Y-79356250D01*
G75*
G02*
X67156250Y-79625000I-268750J0D01*
G01*
X66193750Y-79625000D01*
G75*
G02*
X65925000Y-79356250I0J268750D01*
G01*
X65925000Y-78818750D01*
G75*
G02*
X66193750Y-78550000I268750J0D01*
G01*
G37*
%TD*%
%TO.C,R3*%
G36*
G01*
X91681250Y-86206250D02*
X91681250Y-85243750D01*
G75*
G02*
X91950000Y-84975000I268750J0D01*
G01*
X92487500Y-84975000D01*
G75*
G02*
X92756250Y-85243750I0J-268750D01*
G01*
X92756250Y-86206250D01*
G75*
G02*
X92487500Y-86475000I-268750J0D01*
G01*
X91950000Y-86475000D01*
G75*
G02*
X91681250Y-86206250I0J268750D01*
G01*
G37*
G36*
G01*
X89806250Y-86206250D02*
X89806250Y-85243750D01*
G75*
G02*
X90075000Y-84975000I268750J0D01*
G01*
X90612500Y-84975000D01*
G75*
G02*
X90881250Y-85243750I0J-268750D01*
G01*
X90881250Y-86206250D01*
G75*
G02*
X90612500Y-86475000I-268750J0D01*
G01*
X90075000Y-86475000D01*
G75*
G02*
X89806250Y-86206250I0J268750D01*
G01*
G37*
%TD*%
%TO.C,R2*%
G36*
G01*
X91681250Y-88587500D02*
X91681250Y-87625000D01*
G75*
G02*
X91950000Y-87356250I268750J0D01*
G01*
X92487500Y-87356250D01*
G75*
G02*
X92756250Y-87625000I0J-268750D01*
G01*
X92756250Y-88587500D01*
G75*
G02*
X92487500Y-88856250I-268750J0D01*
G01*
X91950000Y-88856250D01*
G75*
G02*
X91681250Y-88587500I0J268750D01*
G01*
G37*
G36*
G01*
X89806250Y-88587500D02*
X89806250Y-87625000D01*
G75*
G02*
X90075000Y-87356250I268750J0D01*
G01*
X90612500Y-87356250D01*
G75*
G02*
X90881250Y-87625000I0J-268750D01*
G01*
X90881250Y-88587500D01*
G75*
G02*
X90612500Y-88856250I-268750J0D01*
G01*
X90075000Y-88856250D01*
G75*
G02*
X89806250Y-88587500I0J268750D01*
G01*
G37*
%TD*%
%TO.C,R1*%
G36*
G01*
X67868750Y-88587500D02*
X67868750Y-87625000D01*
G75*
G02*
X68137500Y-87356250I268750J0D01*
G01*
X68675000Y-87356250D01*
G75*
G02*
X68943750Y-87625000I0J-268750D01*
G01*
X68943750Y-88587500D01*
G75*
G02*
X68675000Y-88856250I-268750J0D01*
G01*
X68137500Y-88856250D01*
G75*
G02*
X67868750Y-88587500I0J268750D01*
G01*
G37*
G36*
G01*
X65993750Y-88587500D02*
X65993750Y-87625000D01*
G75*
G02*
X66262500Y-87356250I268750J0D01*
G01*
X66800000Y-87356250D01*
G75*
G02*
X67068750Y-87625000I0J-268750D01*
G01*
X67068750Y-88587500D01*
G75*
G02*
X66800000Y-88856250I-268750J0D01*
G01*
X66262500Y-88856250D01*
G75*
G02*
X65993750Y-88587500I0J268750D01*
G01*
G37*
%TD*%
D16*
%TO.C,MX4*%
X136842500Y-92075000D03*
X126682500Y-92075000D03*
D17*
X129262500Y-88075000D03*
D18*
X131762500Y-92075000D03*
G36*
G01*
X127167791Y-90409560D02*
X127167791Y-90409561D01*
G75*
G02*
X127077939Y-88750291I784709J874561D01*
G01*
X128387941Y-87290291D01*
G75*
G02*
X130047211Y-87200439I874561J-784709D01*
G01*
X130047211Y-87200439D01*
G75*
G02*
X130137063Y-88859709I-784709J-874561D01*
G01*
X128827061Y-90319709D01*
G75*
G02*
X127167791Y-90409561I-874561J784709D01*
G01*
G37*
D17*
X134302500Y-86995000D03*
G36*
G01*
X134181657Y-88747216D02*
X134181657Y-88747216D01*
G75*
G02*
X133090284Y-87494157I80843J1172216D01*
G01*
X133130284Y-86914157D01*
G75*
G02*
X134383343Y-85822784I1172216J-80843D01*
G01*
X134383343Y-85822784D01*
G75*
G02*
X135474716Y-87075843I-80843J-1172216D01*
G01*
X135434716Y-87655843D01*
G75*
G02*
X134181657Y-88747216I-1172216J80843D01*
G01*
G37*
%TD*%
D16*
%TO.C,MX3*%
X117792500Y-92075000D03*
X107632500Y-92075000D03*
D17*
X110212500Y-88075000D03*
D18*
X112712500Y-92075000D03*
G36*
G01*
X108117791Y-90409560D02*
X108117791Y-90409561D01*
G75*
G02*
X108027939Y-88750291I784709J874561D01*
G01*
X109337941Y-87290291D01*
G75*
G02*
X110997211Y-87200439I874561J-784709D01*
G01*
X110997211Y-87200439D01*
G75*
G02*
X111087063Y-88859709I-784709J-874561D01*
G01*
X109777061Y-90319709D01*
G75*
G02*
X108117791Y-90409561I-874561J784709D01*
G01*
G37*
D17*
X115252500Y-86995000D03*
G36*
G01*
X115131657Y-88747216D02*
X115131657Y-88747216D01*
G75*
G02*
X114040284Y-87494157I80843J1172216D01*
G01*
X114080284Y-86914157D01*
G75*
G02*
X115333343Y-85822784I1172216J-80843D01*
G01*
X115333343Y-85822784D01*
G75*
G02*
X116424716Y-87075843I-80843J-1172216D01*
G01*
X116384716Y-87655843D01*
G75*
G02*
X115131657Y-88747216I-1172216J80843D01*
G01*
G37*
%TD*%
D16*
%TO.C,MX2*%
X136842500Y-73025000D03*
X126682500Y-73025000D03*
D17*
X129262500Y-69025000D03*
D18*
X131762500Y-73025000D03*
G36*
G01*
X127167791Y-71359560D02*
X127167791Y-71359561D01*
G75*
G02*
X127077939Y-69700291I784709J874561D01*
G01*
X128387941Y-68240291D01*
G75*
G02*
X130047211Y-68150439I874561J-784709D01*
G01*
X130047211Y-68150439D01*
G75*
G02*
X130137063Y-69809709I-784709J-874561D01*
G01*
X128827061Y-71269709D01*
G75*
G02*
X127167791Y-71359561I-874561J784709D01*
G01*
G37*
D17*
X134302500Y-67945000D03*
G36*
G01*
X134181657Y-69697216D02*
X134181657Y-69697216D01*
G75*
G02*
X133090284Y-68444157I80843J1172216D01*
G01*
X133130284Y-67864157D01*
G75*
G02*
X134383343Y-66772784I1172216J-80843D01*
G01*
X134383343Y-66772784D01*
G75*
G02*
X135474716Y-68025843I-80843J-1172216D01*
G01*
X135434716Y-68605843D01*
G75*
G02*
X134181657Y-69697216I-1172216J80843D01*
G01*
G37*
%TD*%
D16*
%TO.C,MX1*%
X117792500Y-73025000D03*
X107632500Y-73025000D03*
D17*
X110212500Y-69025000D03*
D18*
X112712500Y-73025000D03*
G36*
G01*
X108117791Y-71359560D02*
X108117791Y-71359561D01*
G75*
G02*
X108027939Y-69700291I784709J874561D01*
G01*
X109337941Y-68240291D01*
G75*
G02*
X110997211Y-68150439I874561J-784709D01*
G01*
X110997211Y-68150439D01*
G75*
G02*
X111087063Y-69809709I-784709J-874561D01*
G01*
X109777061Y-71269709D01*
G75*
G02*
X108117791Y-71359561I-874561J784709D01*
G01*
G37*
D17*
X115252500Y-67945000D03*
G36*
G01*
X115131657Y-69697216D02*
X115131657Y-69697216D01*
G75*
G02*
X114040284Y-68444157I80843J1172216D01*
G01*
X114080284Y-67864157D01*
G75*
G02*
X115333343Y-66772784I1172216J-80843D01*
G01*
X115333343Y-66772784D01*
G75*
G02*
X116424716Y-68025843I-80843J-1172216D01*
G01*
X116384716Y-68605843D01*
G75*
G02*
X115131657Y-69697216I-1172216J80843D01*
G01*
G37*
%TD*%
%TO.C,F1*%
G36*
G01*
X87977000Y-79109250D02*
X87977000Y-77799250D01*
G75*
G02*
X88247000Y-77529250I270000J0D01*
G01*
X89057000Y-77529250D01*
G75*
G02*
X89327000Y-77799250I0J-270000D01*
G01*
X89327000Y-79109250D01*
G75*
G02*
X89057000Y-79379250I-270000J0D01*
G01*
X88247000Y-79379250D01*
G75*
G02*
X87977000Y-79109250I0J270000D01*
G01*
G37*
G36*
G01*
X85177000Y-79109250D02*
X85177000Y-77799250D01*
G75*
G02*
X85447000Y-77529250I270000J0D01*
G01*
X86257000Y-77529250D01*
G75*
G02*
X86527000Y-77799250I0J-270000D01*
G01*
X86527000Y-79109250D01*
G75*
G02*
X86257000Y-79379250I-270000J0D01*
G01*
X85447000Y-79379250D01*
G75*
G02*
X85177000Y-79109250I0J270000D01*
G01*
G37*
%TD*%
D19*
%TO.C,D4*%
X139700000Y-91218750D03*
X139700000Y-94518750D03*
%TD*%
%TO.C,D3*%
X120650000Y-91281250D03*
X120650000Y-94581250D03*
%TD*%
%TO.C,D2*%
X139700000Y-72168750D03*
X139700000Y-75468750D03*
%TD*%
%TO.C,D1*%
X120650000Y-72168750D03*
X120650000Y-75468750D03*
%TD*%
%TO.C,C7*%
G36*
G01*
X86831250Y-91681250D02*
X87793750Y-91681250D01*
G75*
G02*
X88062500Y-91950000I0J-268750D01*
G01*
X88062500Y-92487500D01*
G75*
G02*
X87793750Y-92756250I-268750J0D01*
G01*
X86831250Y-92756250D01*
G75*
G02*
X86562500Y-92487500I0J268750D01*
G01*
X86562500Y-91950000D01*
G75*
G02*
X86831250Y-91681250I268750J0D01*
G01*
G37*
G36*
G01*
X86831250Y-89806250D02*
X87793750Y-89806250D01*
G75*
G02*
X88062500Y-90075000I0J-268750D01*
G01*
X88062500Y-90612500D01*
G75*
G02*
X87793750Y-90881250I-268750J0D01*
G01*
X86831250Y-90881250D01*
G75*
G02*
X86562500Y-90612500I0J268750D01*
G01*
X86562500Y-90075000D01*
G75*
G02*
X86831250Y-89806250I268750J0D01*
G01*
G37*
%TD*%
%TO.C,C6*%
G36*
G01*
X83031250Y-96437500D02*
X82068750Y-96437500D01*
G75*
G02*
X81800000Y-96168750I0J268750D01*
G01*
X81800000Y-95631250D01*
G75*
G02*
X82068750Y-95362500I268750J0D01*
G01*
X83031250Y-95362500D01*
G75*
G02*
X83300000Y-95631250I0J-268750D01*
G01*
X83300000Y-96168750D01*
G75*
G02*
X83031250Y-96437500I-268750J0D01*
G01*
G37*
G36*
G01*
X83031250Y-98312500D02*
X82068750Y-98312500D01*
G75*
G02*
X81800000Y-98043750I0J268750D01*
G01*
X81800000Y-97506250D01*
G75*
G02*
X82068750Y-97237500I268750J0D01*
G01*
X83031250Y-97237500D01*
G75*
G02*
X83300000Y-97506250I0J-268750D01*
G01*
X83300000Y-98043750D01*
G75*
G02*
X83031250Y-98312500I-268750J0D01*
G01*
G37*
%TD*%
%TO.C,C5*%
G36*
G01*
X72543750Y-97237500D02*
X73506250Y-97237500D01*
G75*
G02*
X73775000Y-97506250I0J-268750D01*
G01*
X73775000Y-98043750D01*
G75*
G02*
X73506250Y-98312500I-268750J0D01*
G01*
X72543750Y-98312500D01*
G75*
G02*
X72275000Y-98043750I0J268750D01*
G01*
X72275000Y-97506250D01*
G75*
G02*
X72543750Y-97237500I268750J0D01*
G01*
G37*
G36*
G01*
X72543750Y-95362500D02*
X73506250Y-95362500D01*
G75*
G02*
X73775000Y-95631250I0J-268750D01*
G01*
X73775000Y-96168750D01*
G75*
G02*
X73506250Y-96437500I-268750J0D01*
G01*
X72543750Y-96437500D01*
G75*
G02*
X72275000Y-96168750I0J268750D01*
G01*
X72275000Y-95631250D01*
G75*
G02*
X72543750Y-95362500I268750J0D01*
G01*
G37*
%TD*%
%TO.C,C4*%
G36*
G01*
X96437500Y-81275000D02*
X96437500Y-82237500D01*
G75*
G02*
X96168750Y-82506250I-268750J0D01*
G01*
X95631250Y-82506250D01*
G75*
G02*
X95362500Y-82237500I0J268750D01*
G01*
X95362500Y-81275000D01*
G75*
G02*
X95631250Y-81006250I268750J0D01*
G01*
X96168750Y-81006250D01*
G75*
G02*
X96437500Y-81275000I0J-268750D01*
G01*
G37*
G36*
G01*
X98312500Y-81275000D02*
X98312500Y-82237500D01*
G75*
G02*
X98043750Y-82506250I-268750J0D01*
G01*
X97506250Y-82506250D01*
G75*
G02*
X97237500Y-82237500I0J268750D01*
G01*
X97237500Y-81275000D01*
G75*
G02*
X97506250Y-81006250I268750J0D01*
G01*
X98043750Y-81006250D01*
G75*
G02*
X98312500Y-81275000I0J-268750D01*
G01*
G37*
%TD*%
%TO.C,C3*%
G36*
G01*
X96581250Y-88418750D02*
X96581250Y-89381250D01*
G75*
G02*
X96312500Y-89650000I-268750J0D01*
G01*
X95775000Y-89650000D01*
G75*
G02*
X95506250Y-89381250I0J268750D01*
G01*
X95506250Y-88418750D01*
G75*
G02*
X95775000Y-88150000I268750J0D01*
G01*
X96312500Y-88150000D01*
G75*
G02*
X96581250Y-88418750I0J-268750D01*
G01*
G37*
G36*
G01*
X98456250Y-88418750D02*
X98456250Y-89381250D01*
G75*
G02*
X98187500Y-89650000I-268750J0D01*
G01*
X97650000Y-89650000D01*
G75*
G02*
X97381250Y-89381250I0J268750D01*
G01*
X97381250Y-88418750D01*
G75*
G02*
X97650000Y-88150000I268750J0D01*
G01*
X98187500Y-88150000D01*
G75*
G02*
X98456250Y-88418750I0J-268750D01*
G01*
G37*
%TD*%
%TO.C,C2*%
G36*
G01*
X96293750Y-83656250D02*
X96293750Y-84618750D01*
G75*
G02*
X96025000Y-84887500I-268750J0D01*
G01*
X95487500Y-84887500D01*
G75*
G02*
X95218750Y-84618750I0J268750D01*
G01*
X95218750Y-83656250D01*
G75*
G02*
X95487500Y-83387500I268750J0D01*
G01*
X96025000Y-83387500D01*
G75*
G02*
X96293750Y-83656250I0J-268750D01*
G01*
G37*
G36*
G01*
X98168750Y-83656250D02*
X98168750Y-84618750D01*
G75*
G02*
X97900000Y-84887500I-268750J0D01*
G01*
X97362500Y-84887500D01*
G75*
G02*
X97093750Y-84618750I0J268750D01*
G01*
X97093750Y-83656250D01*
G75*
G02*
X97362500Y-83387500I268750J0D01*
G01*
X97900000Y-83387500D01*
G75*
G02*
X98168750Y-83656250I0J-268750D01*
G01*
G37*
%TD*%
%TO.C,C1*%
G36*
G01*
X96437500Y-86037500D02*
X96437500Y-87000000D01*
G75*
G02*
X96168750Y-87268750I-268750J0D01*
G01*
X95631250Y-87268750D01*
G75*
G02*
X95362500Y-87000000I0J268750D01*
G01*
X95362500Y-86037500D01*
G75*
G02*
X95631250Y-85768750I268750J0D01*
G01*
X96168750Y-85768750D01*
G75*
G02*
X96437500Y-86037500I0J-268750D01*
G01*
G37*
G36*
G01*
X98312500Y-86037500D02*
X98312500Y-87000000D01*
G75*
G02*
X98043750Y-87268750I-268750J0D01*
G01*
X97506250Y-87268750D01*
G75*
G02*
X97237500Y-87000000I0J268750D01*
G01*
X97237500Y-86037500D01*
G75*
G02*
X97506250Y-85768750I268750J0D01*
G01*
X98043750Y-85768750D01*
G75*
G02*
X98312500Y-86037500I0J-268750D01*
G01*
G37*
%TD*%
M02*
