%TF.GenerationSoftware,KiCad,Pcbnew,(5.1.6)-1*%
%TF.CreationDate,2020-07-09T12:21:52-07:00*%
%TF.ProjectId,guide,67756964-652e-46b6-9963-61645f706362,rev?*%
%TF.SameCoordinates,Original*%
%TF.FileFunction,Legend,Bot*%
%TF.FilePolarity,Positive*%
%FSLAX46Y46*%
G04 Gerber Fmt 4.6, Leading zero omitted, Abs format (unit mm)*
G04 Created by KiCad (PCBNEW (5.1.6)-1) date 2020-07-09 12:21:52*
%MOMM*%
%LPD*%
G01*
G04 APERTURE LIST*
%ADD10C,0.120000*%
%ADD11C,0.150000*%
G04 APERTURE END LIST*
D10*
%TO.C,Y1*%
X75787500Y-98487500D02*
X75787500Y-95187500D01*
X75787500Y-95187500D02*
X79787500Y-95187500D01*
D11*
%TO.C,USB1*%
X83526000Y-70728000D02*
X91226000Y-70728000D01*
X91226000Y-65278000D02*
X91226000Y-70728000D01*
X83526000Y-65278000D02*
X83526000Y-70728000D01*
%TO.C,U1*%
X82962500Y-80550000D02*
X82962500Y-81125000D01*
X72612500Y-80550000D02*
X72612500Y-81225000D01*
X72612500Y-90900000D02*
X72612500Y-90225000D01*
X82962500Y-90900000D02*
X82962500Y-90225000D01*
X82962500Y-80550000D02*
X82287500Y-80550000D01*
X82962500Y-90900000D02*
X82287500Y-90900000D01*
X72612500Y-90900000D02*
X73287500Y-90900000D01*
X72612500Y-80550000D02*
X73287500Y-80550000D01*
X82962500Y-81125000D02*
X84237500Y-81125000D01*
%TO.C,SW1*%
X66087500Y-92868750D02*
G75*
G03*
X66087500Y-92868750I-1000000J0D01*
G01*
X67687500Y-95468750D02*
X67687500Y-90268750D01*
X62487500Y-95468750D02*
X67687500Y-95468750D01*
X62487500Y-90268750D02*
X62487500Y-95468750D01*
X67687500Y-90268750D02*
X62487500Y-90268750D01*
D10*
%TO.C,R4*%
X65965000Y-79766422D02*
X65965000Y-80283578D01*
X67385000Y-79766422D02*
X67385000Y-80283578D01*
%TO.C,R3*%
X91022672Y-86435000D02*
X91539828Y-86435000D01*
X91022672Y-85015000D02*
X91539828Y-85015000D01*
%TO.C,R2*%
X91022672Y-88816250D02*
X91539828Y-88816250D01*
X91022672Y-87396250D02*
X91539828Y-87396250D01*
%TO.C,R1*%
X67210172Y-88816250D02*
X67727328Y-88816250D01*
X67210172Y-87396250D02*
X67727328Y-87396250D01*
%TO.C,F1*%
X86649936Y-79364250D02*
X87854064Y-79364250D01*
X86649936Y-77544250D02*
X87854064Y-77544250D01*
%TO.C,D4*%
X140700000Y-95118750D02*
X138700000Y-95118750D01*
X138700000Y-95118750D02*
X138700000Y-91218750D01*
X140700000Y-95118750D02*
X140700000Y-91218750D01*
%TO.C,D3*%
X121650000Y-95181250D02*
X119650000Y-95181250D01*
X119650000Y-95181250D02*
X119650000Y-91281250D01*
X121650000Y-95181250D02*
X121650000Y-91281250D01*
%TO.C,D2*%
X140700000Y-76068750D02*
X138700000Y-76068750D01*
X138700000Y-76068750D02*
X138700000Y-72168750D01*
X140700000Y-76068750D02*
X140700000Y-72168750D01*
%TO.C,D1*%
X121650000Y-76068750D02*
X119650000Y-76068750D01*
X119650000Y-76068750D02*
X119650000Y-72168750D01*
X121650000Y-76068750D02*
X121650000Y-72168750D01*
%TO.C,C7*%
X86602500Y-91022672D02*
X86602500Y-91539828D01*
X88022500Y-91022672D02*
X88022500Y-91539828D01*
%TO.C,C6*%
X83260000Y-97096078D02*
X83260000Y-96578922D01*
X81840000Y-97096078D02*
X81840000Y-96578922D01*
%TO.C,C5*%
X72315000Y-96578922D02*
X72315000Y-97096078D01*
X73735000Y-96578922D02*
X73735000Y-97096078D01*
%TO.C,C4*%
X97096078Y-81046250D02*
X96578922Y-81046250D01*
X97096078Y-82466250D02*
X96578922Y-82466250D01*
%TO.C,C3*%
X97239828Y-88190000D02*
X96722672Y-88190000D01*
X97239828Y-89610000D02*
X96722672Y-89610000D01*
%TO.C,C2*%
X96952328Y-83427500D02*
X96435172Y-83427500D01*
X96952328Y-84847500D02*
X96435172Y-84847500D01*
%TO.C,C1*%
X97096078Y-85808750D02*
X96578922Y-85808750D01*
X97096078Y-87228750D02*
X96578922Y-87228750D01*
%TO.C,Y1*%
D11*
X78263690Y-99263690D02*
X78263690Y-99739880D01*
X78597023Y-98739880D02*
X78263690Y-99263690D01*
X77930357Y-98739880D01*
X77073214Y-99739880D02*
X77644642Y-99739880D01*
X77358928Y-99739880D02*
X77358928Y-98739880D01*
X77454166Y-98882738D01*
X77549404Y-98977976D01*
X77644642Y-99025595D01*
%TO.C,USB1*%
X89114095Y-66762380D02*
X89114095Y-67571904D01*
X89066476Y-67667142D01*
X89018857Y-67714761D01*
X88923619Y-67762380D01*
X88733142Y-67762380D01*
X88637904Y-67714761D01*
X88590285Y-67667142D01*
X88542666Y-67571904D01*
X88542666Y-66762380D01*
X88114095Y-67714761D02*
X87971238Y-67762380D01*
X87733142Y-67762380D01*
X87637904Y-67714761D01*
X87590285Y-67667142D01*
X87542666Y-67571904D01*
X87542666Y-67476666D01*
X87590285Y-67381428D01*
X87637904Y-67333809D01*
X87733142Y-67286190D01*
X87923619Y-67238571D01*
X88018857Y-67190952D01*
X88066476Y-67143333D01*
X88114095Y-67048095D01*
X88114095Y-66952857D01*
X88066476Y-66857619D01*
X88018857Y-66810000D01*
X87923619Y-66762380D01*
X87685523Y-66762380D01*
X87542666Y-66810000D01*
X86780761Y-67238571D02*
X86637904Y-67286190D01*
X86590285Y-67333809D01*
X86542666Y-67429047D01*
X86542666Y-67571904D01*
X86590285Y-67667142D01*
X86637904Y-67714761D01*
X86733142Y-67762380D01*
X87114095Y-67762380D01*
X87114095Y-66762380D01*
X86780761Y-66762380D01*
X86685523Y-66810000D01*
X86637904Y-66857619D01*
X86590285Y-66952857D01*
X86590285Y-67048095D01*
X86637904Y-67143333D01*
X86685523Y-67190952D01*
X86780761Y-67238571D01*
X87114095Y-67238571D01*
X85590285Y-67762380D02*
X86161714Y-67762380D01*
X85876000Y-67762380D02*
X85876000Y-66762380D01*
X85971238Y-66905238D01*
X86066476Y-67000476D01*
X86161714Y-67048095D01*
%TO.C,U1*%
X78549404Y-77727380D02*
X78549404Y-78536904D01*
X78501785Y-78632142D01*
X78454166Y-78679761D01*
X78358928Y-78727380D01*
X78168452Y-78727380D01*
X78073214Y-78679761D01*
X78025595Y-78632142D01*
X77977976Y-78536904D01*
X77977976Y-77727380D01*
X76977976Y-78727380D02*
X77549404Y-78727380D01*
X77263690Y-78727380D02*
X77263690Y-77727380D01*
X77358928Y-77870238D01*
X77454166Y-77965476D01*
X77549404Y-78013095D01*
%TO.C,SW1*%
X66420833Y-97337511D02*
X66277976Y-97385130D01*
X66039880Y-97385130D01*
X65944642Y-97337511D01*
X65897023Y-97289892D01*
X65849404Y-97194654D01*
X65849404Y-97099416D01*
X65897023Y-97004178D01*
X65944642Y-96956559D01*
X66039880Y-96908940D01*
X66230357Y-96861321D01*
X66325595Y-96813702D01*
X66373214Y-96766083D01*
X66420833Y-96670845D01*
X66420833Y-96575607D01*
X66373214Y-96480369D01*
X66325595Y-96432750D01*
X66230357Y-96385130D01*
X65992261Y-96385130D01*
X65849404Y-96432750D01*
X65516071Y-96385130D02*
X65277976Y-97385130D01*
X65087500Y-96670845D01*
X64897023Y-97385130D01*
X64658928Y-96385130D01*
X63754166Y-97385130D02*
X64325595Y-97385130D01*
X64039880Y-97385130D02*
X64039880Y-96385130D01*
X64135119Y-96527988D01*
X64230357Y-96623226D01*
X64325595Y-96670845D01*
%TO.C,R4*%
X65477380Y-79858333D02*
X65001190Y-79525000D01*
X65477380Y-79286904D02*
X64477380Y-79286904D01*
X64477380Y-79667857D01*
X64525000Y-79763095D01*
X64572619Y-79810714D01*
X64667857Y-79858333D01*
X64810714Y-79858333D01*
X64905952Y-79810714D01*
X64953571Y-79763095D01*
X65001190Y-79667857D01*
X65001190Y-79286904D01*
X64810714Y-80715476D02*
X65477380Y-80715476D01*
X64429761Y-80477380D02*
X65144047Y-80239285D01*
X65144047Y-80858333D01*
%TO.C,R3*%
X91447916Y-87827380D02*
X91781250Y-87351190D01*
X92019345Y-87827380D02*
X92019345Y-86827380D01*
X91638392Y-86827380D01*
X91543154Y-86875000D01*
X91495535Y-86922619D01*
X91447916Y-87017857D01*
X91447916Y-87160714D01*
X91495535Y-87255952D01*
X91543154Y-87303571D01*
X91638392Y-87351190D01*
X92019345Y-87351190D01*
X91114583Y-86827380D02*
X90495535Y-86827380D01*
X90828869Y-87208333D01*
X90686011Y-87208333D01*
X90590773Y-87255952D01*
X90543154Y-87303571D01*
X90495535Y-87398809D01*
X90495535Y-87636904D01*
X90543154Y-87732142D01*
X90590773Y-87779761D01*
X90686011Y-87827380D01*
X90971726Y-87827380D01*
X91066964Y-87779761D01*
X91114583Y-87732142D01*
%TO.C,R2*%
X91447916Y-90208630D02*
X91781250Y-89732440D01*
X92019345Y-90208630D02*
X92019345Y-89208630D01*
X91638392Y-89208630D01*
X91543154Y-89256250D01*
X91495535Y-89303869D01*
X91447916Y-89399107D01*
X91447916Y-89541964D01*
X91495535Y-89637202D01*
X91543154Y-89684821D01*
X91638392Y-89732440D01*
X92019345Y-89732440D01*
X91066964Y-89303869D02*
X91019345Y-89256250D01*
X90924107Y-89208630D01*
X90686011Y-89208630D01*
X90590773Y-89256250D01*
X90543154Y-89303869D01*
X90495535Y-89399107D01*
X90495535Y-89494345D01*
X90543154Y-89637202D01*
X91114583Y-90208630D01*
X90495535Y-90208630D01*
%TO.C,R1*%
X67635416Y-90208630D02*
X67968750Y-89732440D01*
X68206845Y-90208630D02*
X68206845Y-89208630D01*
X67825892Y-89208630D01*
X67730654Y-89256250D01*
X67683035Y-89303869D01*
X67635416Y-89399107D01*
X67635416Y-89541964D01*
X67683035Y-89637202D01*
X67730654Y-89684821D01*
X67825892Y-89732440D01*
X68206845Y-89732440D01*
X66683035Y-90208630D02*
X67254464Y-90208630D01*
X66968750Y-90208630D02*
X66968750Y-89208630D01*
X67063988Y-89351488D01*
X67159226Y-89446726D01*
X67254464Y-89494345D01*
%TO.C,F1*%
X87585333Y-80202821D02*
X87918666Y-80202821D01*
X87918666Y-80726630D02*
X87918666Y-79726630D01*
X87442476Y-79726630D01*
X86537714Y-80726630D02*
X87109142Y-80726630D01*
X86823428Y-80726630D02*
X86823428Y-79726630D01*
X86918666Y-79869488D01*
X87013904Y-79964726D01*
X87109142Y-80012345D01*
%TO.C,D4*%
X142152380Y-92130654D02*
X141152380Y-92130654D01*
X141152380Y-92368750D01*
X141200000Y-92511607D01*
X141295238Y-92606845D01*
X141390476Y-92654464D01*
X141580952Y-92702083D01*
X141723809Y-92702083D01*
X141914285Y-92654464D01*
X142009523Y-92606845D01*
X142104761Y-92511607D01*
X142152380Y-92368750D01*
X142152380Y-92130654D01*
X141485714Y-93559226D02*
X142152380Y-93559226D01*
X141104761Y-93321130D02*
X141819047Y-93083035D01*
X141819047Y-93702083D01*
%TO.C,D3*%
X123102380Y-92193154D02*
X122102380Y-92193154D01*
X122102380Y-92431250D01*
X122150000Y-92574107D01*
X122245238Y-92669345D01*
X122340476Y-92716964D01*
X122530952Y-92764583D01*
X122673809Y-92764583D01*
X122864285Y-92716964D01*
X122959523Y-92669345D01*
X123054761Y-92574107D01*
X123102380Y-92431250D01*
X123102380Y-92193154D01*
X122102380Y-93097916D02*
X122102380Y-93716964D01*
X122483333Y-93383630D01*
X122483333Y-93526488D01*
X122530952Y-93621726D01*
X122578571Y-93669345D01*
X122673809Y-93716964D01*
X122911904Y-93716964D01*
X123007142Y-93669345D01*
X123054761Y-93621726D01*
X123102380Y-93526488D01*
X123102380Y-93240773D01*
X123054761Y-93145535D01*
X123007142Y-93097916D01*
%TO.C,D2*%
X142152380Y-73080654D02*
X141152380Y-73080654D01*
X141152380Y-73318750D01*
X141200000Y-73461607D01*
X141295238Y-73556845D01*
X141390476Y-73604464D01*
X141580952Y-73652083D01*
X141723809Y-73652083D01*
X141914285Y-73604464D01*
X142009523Y-73556845D01*
X142104761Y-73461607D01*
X142152380Y-73318750D01*
X142152380Y-73080654D01*
X141247619Y-74033035D02*
X141200000Y-74080654D01*
X141152380Y-74175892D01*
X141152380Y-74413988D01*
X141200000Y-74509226D01*
X141247619Y-74556845D01*
X141342857Y-74604464D01*
X141438095Y-74604464D01*
X141580952Y-74556845D01*
X142152380Y-73985416D01*
X142152380Y-74604464D01*
%TO.C,D1*%
X123102380Y-73080654D02*
X122102380Y-73080654D01*
X122102380Y-73318750D01*
X122150000Y-73461607D01*
X122245238Y-73556845D01*
X122340476Y-73604464D01*
X122530952Y-73652083D01*
X122673809Y-73652083D01*
X122864285Y-73604464D01*
X122959523Y-73556845D01*
X123054761Y-73461607D01*
X123102380Y-73318750D01*
X123102380Y-73080654D01*
X123102380Y-74604464D02*
X123102380Y-74033035D01*
X123102380Y-74318750D02*
X122102380Y-74318750D01*
X122245238Y-74223511D01*
X122340476Y-74128273D01*
X122388095Y-74033035D01*
%TO.C,C7*%
X86019642Y-91114583D02*
X86067261Y-91066964D01*
X86114880Y-90924107D01*
X86114880Y-90828869D01*
X86067261Y-90686011D01*
X85972023Y-90590773D01*
X85876785Y-90543154D01*
X85686309Y-90495535D01*
X85543452Y-90495535D01*
X85352976Y-90543154D01*
X85257738Y-90590773D01*
X85162500Y-90686011D01*
X85114880Y-90828869D01*
X85114880Y-90924107D01*
X85162500Y-91066964D01*
X85210119Y-91114583D01*
X85114880Y-91447916D02*
X85114880Y-92114583D01*
X86114880Y-91686011D01*
%TO.C,C6*%
X84557142Y-96670833D02*
X84604761Y-96623214D01*
X84652380Y-96480357D01*
X84652380Y-96385119D01*
X84604761Y-96242261D01*
X84509523Y-96147023D01*
X84414285Y-96099404D01*
X84223809Y-96051785D01*
X84080952Y-96051785D01*
X83890476Y-96099404D01*
X83795238Y-96147023D01*
X83700000Y-96242261D01*
X83652380Y-96385119D01*
X83652380Y-96480357D01*
X83700000Y-96623214D01*
X83747619Y-96670833D01*
X83652380Y-97527976D02*
X83652380Y-97337500D01*
X83700000Y-97242261D01*
X83747619Y-97194642D01*
X83890476Y-97099404D01*
X84080952Y-97051785D01*
X84461904Y-97051785D01*
X84557142Y-97099404D01*
X84604761Y-97147023D01*
X84652380Y-97242261D01*
X84652380Y-97432738D01*
X84604761Y-97527976D01*
X84557142Y-97575595D01*
X84461904Y-97623214D01*
X84223809Y-97623214D01*
X84128571Y-97575595D01*
X84080952Y-97527976D01*
X84033333Y-97432738D01*
X84033333Y-97242261D01*
X84080952Y-97147023D01*
X84128571Y-97099404D01*
X84223809Y-97051785D01*
%TO.C,C5*%
X71732142Y-96670833D02*
X71779761Y-96623214D01*
X71827380Y-96480357D01*
X71827380Y-96385119D01*
X71779761Y-96242261D01*
X71684523Y-96147023D01*
X71589285Y-96099404D01*
X71398809Y-96051785D01*
X71255952Y-96051785D01*
X71065476Y-96099404D01*
X70970238Y-96147023D01*
X70875000Y-96242261D01*
X70827380Y-96385119D01*
X70827380Y-96480357D01*
X70875000Y-96623214D01*
X70922619Y-96670833D01*
X70827380Y-97575595D02*
X70827380Y-97099404D01*
X71303571Y-97051785D01*
X71255952Y-97099404D01*
X71208333Y-97194642D01*
X71208333Y-97432738D01*
X71255952Y-97527976D01*
X71303571Y-97575595D01*
X71398809Y-97623214D01*
X71636904Y-97623214D01*
X71732142Y-97575595D01*
X71779761Y-97527976D01*
X71827380Y-97432738D01*
X71827380Y-97194642D01*
X71779761Y-97099404D01*
X71732142Y-97051785D01*
%TO.C,C4*%
X97004166Y-80463392D02*
X97051785Y-80511011D01*
X97194642Y-80558630D01*
X97289880Y-80558630D01*
X97432738Y-80511011D01*
X97527976Y-80415773D01*
X97575595Y-80320535D01*
X97623214Y-80130059D01*
X97623214Y-79987202D01*
X97575595Y-79796726D01*
X97527976Y-79701488D01*
X97432738Y-79606250D01*
X97289880Y-79558630D01*
X97194642Y-79558630D01*
X97051785Y-79606250D01*
X97004166Y-79653869D01*
X96147023Y-79891964D02*
X96147023Y-80558630D01*
X96385119Y-79511011D02*
X96623214Y-80225297D01*
X96004166Y-80225297D01*
%TO.C,C3*%
X97147916Y-87607142D02*
X97195535Y-87654761D01*
X97338392Y-87702380D01*
X97433630Y-87702380D01*
X97576488Y-87654761D01*
X97671726Y-87559523D01*
X97719345Y-87464285D01*
X97766964Y-87273809D01*
X97766964Y-87130952D01*
X97719345Y-86940476D01*
X97671726Y-86845238D01*
X97576488Y-86750000D01*
X97433630Y-86702380D01*
X97338392Y-86702380D01*
X97195535Y-86750000D01*
X97147916Y-86797619D01*
X96814583Y-86702380D02*
X96195535Y-86702380D01*
X96528869Y-87083333D01*
X96386011Y-87083333D01*
X96290773Y-87130952D01*
X96243154Y-87178571D01*
X96195535Y-87273809D01*
X96195535Y-87511904D01*
X96243154Y-87607142D01*
X96290773Y-87654761D01*
X96386011Y-87702380D01*
X96671726Y-87702380D01*
X96766964Y-87654761D01*
X96814583Y-87607142D01*
%TO.C,C2*%
X96860416Y-82844642D02*
X96908035Y-82892261D01*
X97050892Y-82939880D01*
X97146130Y-82939880D01*
X97288988Y-82892261D01*
X97384226Y-82797023D01*
X97431845Y-82701785D01*
X97479464Y-82511309D01*
X97479464Y-82368452D01*
X97431845Y-82177976D01*
X97384226Y-82082738D01*
X97288988Y-81987500D01*
X97146130Y-81939880D01*
X97050892Y-81939880D01*
X96908035Y-81987500D01*
X96860416Y-82035119D01*
X96479464Y-82035119D02*
X96431845Y-81987500D01*
X96336607Y-81939880D01*
X96098511Y-81939880D01*
X96003273Y-81987500D01*
X95955654Y-82035119D01*
X95908035Y-82130357D01*
X95908035Y-82225595D01*
X95955654Y-82368452D01*
X96527083Y-82939880D01*
X95908035Y-82939880D01*
%TO.C,C1*%
X97004166Y-85225892D02*
X97051785Y-85273511D01*
X97194642Y-85321130D01*
X97289880Y-85321130D01*
X97432738Y-85273511D01*
X97527976Y-85178273D01*
X97575595Y-85083035D01*
X97623214Y-84892559D01*
X97623214Y-84749702D01*
X97575595Y-84559226D01*
X97527976Y-84463988D01*
X97432738Y-84368750D01*
X97289880Y-84321130D01*
X97194642Y-84321130D01*
X97051785Y-84368750D01*
X97004166Y-84416369D01*
X96051785Y-85321130D02*
X96623214Y-85321130D01*
X96337500Y-85321130D02*
X96337500Y-84321130D01*
X96432738Y-84463988D01*
X96527976Y-84559226D01*
X96623214Y-84606845D01*
%TD*%
M02*
