%TF.GenerationSoftware,KiCad,Pcbnew,(5.1.6)-1*%
%TF.CreationDate,2020-07-09T12:21:52-07:00*%
%TF.ProjectId,guide,67756964-652e-46b6-9963-61645f706362,rev?*%
%TF.SameCoordinates,Original*%
%TF.FileFunction,Copper,L1,Top*%
%TF.FilePolarity,Positive*%
%FSLAX46Y46*%
G04 Gerber Fmt 4.6, Leading zero omitted, Abs format (unit mm)*
G04 Created by KiCad (PCBNEW (5.1.6)-1) date 2020-07-09 12:21:52*
%MOMM*%
%LPD*%
G01*
G04 APERTURE LIST*
%TA.AperFunction,ComponentPad*%
%ADD10O,1.700000X2.700000*%
%TD*%
%TA.AperFunction,ComponentPad*%
%ADD11C,2.250000*%
%TD*%
%TA.AperFunction,ViaPad*%
%ADD12C,0.800000*%
%TD*%
%TA.AperFunction,Conductor*%
%ADD13C,0.381000*%
%TD*%
%TA.AperFunction,Conductor*%
%ADD14C,0.254000*%
%TD*%
G04 APERTURE END LIST*
D10*
%TO.P,USB1,6*%
%TO.N,Net-(USB1-Pad6)*%
X83726000Y-65278000D03*
X91026000Y-65278000D03*
X91026000Y-69778000D03*
X83726000Y-69778000D03*
%TD*%
D11*
%TO.P,MX4,1*%
%TO.N,COL1*%
X129262500Y-88075000D03*
%TA.AperFunction,ComponentPad*%
G36*
G01*
X127201183Y-90372345D02*
X127201183Y-90372345D01*
G75*
G02*
X127115155Y-88783683I751317J837345D01*
G01*
X128425157Y-87323683D01*
G75*
G02*
X130013819Y-87237655I837345J-751317D01*
G01*
X130013819Y-87237655D01*
G75*
G02*
X130099847Y-88826317I-751317J-837345D01*
G01*
X128789845Y-90286317D01*
G75*
G02*
X127201183Y-90372345I-837345J751317D01*
G01*
G37*
%TD.AperFunction*%
%TO.P,MX4,2*%
%TO.N,Net-(D4-Pad2)*%
X134302500Y-86995000D03*
%TA.AperFunction,ComponentPad*%
G36*
G01*
X134185097Y-88697334D02*
X134185097Y-88697334D01*
G75*
G02*
X133140166Y-87497597I77403J1122334D01*
G01*
X133180166Y-86917597D01*
G75*
G02*
X134379903Y-85872666I1122334J-77403D01*
G01*
X134379903Y-85872666D01*
G75*
G02*
X135424834Y-87072403I-77403J-1122334D01*
G01*
X135384834Y-87652403D01*
G75*
G02*
X134185097Y-88697334I-1122334J77403D01*
G01*
G37*
%TD.AperFunction*%
%TD*%
%TO.P,MX3,1*%
%TO.N,COL0*%
X110212500Y-88075000D03*
%TA.AperFunction,ComponentPad*%
G36*
G01*
X108151183Y-90372345D02*
X108151183Y-90372345D01*
G75*
G02*
X108065155Y-88783683I751317J837345D01*
G01*
X109375157Y-87323683D01*
G75*
G02*
X110963819Y-87237655I837345J-751317D01*
G01*
X110963819Y-87237655D01*
G75*
G02*
X111049847Y-88826317I-751317J-837345D01*
G01*
X109739845Y-90286317D01*
G75*
G02*
X108151183Y-90372345I-837345J751317D01*
G01*
G37*
%TD.AperFunction*%
%TO.P,MX3,2*%
%TO.N,Net-(D3-Pad2)*%
X115252500Y-86995000D03*
%TA.AperFunction,ComponentPad*%
G36*
G01*
X115135097Y-88697334D02*
X115135097Y-88697334D01*
G75*
G02*
X114090166Y-87497597I77403J1122334D01*
G01*
X114130166Y-86917597D01*
G75*
G02*
X115329903Y-85872666I1122334J-77403D01*
G01*
X115329903Y-85872666D01*
G75*
G02*
X116374834Y-87072403I-77403J-1122334D01*
G01*
X116334834Y-87652403D01*
G75*
G02*
X115135097Y-88697334I-1122334J77403D01*
G01*
G37*
%TD.AperFunction*%
%TD*%
%TO.P,MX2,1*%
%TO.N,COL1*%
X129262500Y-69025000D03*
%TA.AperFunction,ComponentPad*%
G36*
G01*
X127201183Y-71322345D02*
X127201183Y-71322345D01*
G75*
G02*
X127115155Y-69733683I751317J837345D01*
G01*
X128425157Y-68273683D01*
G75*
G02*
X130013819Y-68187655I837345J-751317D01*
G01*
X130013819Y-68187655D01*
G75*
G02*
X130099847Y-69776317I-751317J-837345D01*
G01*
X128789845Y-71236317D01*
G75*
G02*
X127201183Y-71322345I-837345J751317D01*
G01*
G37*
%TD.AperFunction*%
%TO.P,MX2,2*%
%TO.N,Net-(D2-Pad2)*%
X134302500Y-67945000D03*
%TA.AperFunction,ComponentPad*%
G36*
G01*
X134185097Y-69647334D02*
X134185097Y-69647334D01*
G75*
G02*
X133140166Y-68447597I77403J1122334D01*
G01*
X133180166Y-67867597D01*
G75*
G02*
X134379903Y-66822666I1122334J-77403D01*
G01*
X134379903Y-66822666D01*
G75*
G02*
X135424834Y-68022403I-77403J-1122334D01*
G01*
X135384834Y-68602403D01*
G75*
G02*
X134185097Y-69647334I-1122334J77403D01*
G01*
G37*
%TD.AperFunction*%
%TD*%
%TO.P,MX1,1*%
%TO.N,COL0*%
X110212500Y-69025000D03*
%TA.AperFunction,ComponentPad*%
G36*
G01*
X108151183Y-71322345D02*
X108151183Y-71322345D01*
G75*
G02*
X108065155Y-69733683I751317J837345D01*
G01*
X109375157Y-68273683D01*
G75*
G02*
X110963819Y-68187655I837345J-751317D01*
G01*
X110963819Y-68187655D01*
G75*
G02*
X111049847Y-69776317I-751317J-837345D01*
G01*
X109739845Y-71236317D01*
G75*
G02*
X108151183Y-71322345I-837345J751317D01*
G01*
G37*
%TD.AperFunction*%
%TO.P,MX1,2*%
%TO.N,Net-(D1-Pad2)*%
X115252500Y-67945000D03*
%TA.AperFunction,ComponentPad*%
G36*
G01*
X115135097Y-69647334D02*
X115135097Y-69647334D01*
G75*
G02*
X114090166Y-68447597I77403J1122334D01*
G01*
X114130166Y-67867597D01*
G75*
G02*
X115329903Y-66822666I1122334J-77403D01*
G01*
X115329903Y-66822666D01*
G75*
G02*
X116374834Y-68022403I-77403J-1122334D01*
G01*
X116334834Y-68602403D01*
G75*
G02*
X115135097Y-69647334I-1122334J77403D01*
G01*
G37*
%TD.AperFunction*%
%TD*%
D12*
%TO.N,GND*%
X78887500Y-94381500D03*
X83672500Y-94381500D03*
X94361000Y-81788000D03*
X91186000Y-81788000D03*
%TO.N,+5V*%
X92456000Y-91821000D03*
X85852000Y-91821000D03*
X85090000Y-88646000D03*
X86360000Y-82550000D03*
%TO.N,ROW0*%
X94488000Y-75311000D03*
X85344000Y-75311000D03*
%TO.N,ROW1*%
X61722000Y-85471000D03*
X69850000Y-84074000D03*
%TO.N,COL0*%
X92075000Y-72898000D03*
X69850000Y-73025000D03*
X64389000Y-85852000D03*
X70231731Y-84998274D03*
%TO.N,COL1*%
X100330000Y-78105000D03*
X69850000Y-72024997D03*
X64389000Y-86852003D03*
X69866553Y-86101582D03*
%TO.N,Net-(R1-Pad1)*%
X75946000Y-93345000D03*
X81457968Y-93294032D03*
%TO.N,Net-(R2-Pad1)*%
X85979000Y-85725000D03*
X85979000Y-84134500D03*
%TO.N,Net-(R3-Pad1)*%
X87122000Y-85725000D03*
X87122000Y-83312000D03*
%TD*%
D13*
%TO.N,GND*%
X78887500Y-94381500D02*
X83672500Y-94381500D01*
X94361000Y-81788000D02*
X91186000Y-81788000D01*
%TO.N,+5V*%
X92456000Y-91821000D02*
X85725000Y-91821000D01*
X85725000Y-91821000D02*
X85852000Y-91821000D01*
X85090000Y-88646000D02*
X85090000Y-83820000D01*
X85090000Y-83820000D02*
X86360000Y-82550000D01*
D14*
%TO.N,ROW0*%
X94488000Y-75311000D02*
X85344000Y-75311000D01*
%TO.N,ROW1*%
X61722000Y-85471000D02*
X63119000Y-84074000D01*
X63119000Y-84074000D02*
X69850000Y-84074000D01*
%TO.N,COL0*%
X108902500Y-70485000D02*
X108902500Y-89535000D01*
X92075000Y-72898000D02*
X69977000Y-72898000D01*
X69977000Y-72898000D02*
X69850000Y-73025000D01*
X64389000Y-85852000D02*
X69088000Y-85852000D01*
X69088000Y-85852000D02*
X69941726Y-84998274D01*
X69941726Y-84998274D02*
X70231731Y-84998274D01*
%TO.N,COL1*%
X127952500Y-89535000D02*
X127952500Y-70485000D01*
X100330000Y-78105000D02*
X100330000Y-72771000D01*
X100330000Y-72771000D02*
X99583997Y-72024997D01*
X99583997Y-72024997D02*
X69850000Y-72024997D01*
X64389000Y-86852003D02*
X69116132Y-86852003D01*
X69116132Y-86852003D02*
X69866553Y-86101582D01*
%TO.N,Net-(R1-Pad1)*%
X75946000Y-93345000D02*
X81407000Y-93345000D01*
X81407000Y-93345000D02*
X81457968Y-93294032D01*
%TO.N,Net-(R2-Pad1)*%
X85979000Y-85725000D02*
X85979000Y-84201000D01*
X85979000Y-84201000D02*
X85979000Y-84134500D01*
%TO.N,Net-(R3-Pad1)*%
X87122000Y-85725000D02*
X87122000Y-83312000D01*
%TD*%
M02*
