G04 #@! TF.GenerationSoftware,KiCad,Pcbnew,(5.1.6)-1*
G04 #@! TF.CreationDate,2020-07-09T12:27:34-07:00*
G04 #@! TF.ProjectId,guide,67756964-652e-46b6-9963-61645f706362,rev?*
G04 #@! TF.SameCoordinates,Original*
G04 #@! TF.FileFunction,Copper,L2,Bot*
G04 #@! TF.FilePolarity,Positive*
%FSLAX46Y46*%
G04 Gerber Fmt 4.6, Leading zero omitted, Abs format (unit mm)*
G04 Created by KiCad (PCBNEW (5.1.6)-1) date 2020-07-09 12:27:34*
%MOMM*%
%LPD*%
G01*
G04 APERTURE LIST*
G04 #@! TA.AperFunction,SMDPad,CuDef*
%ADD10R,1.400000X1.200000*%
G04 #@! TD*
G04 #@! TA.AperFunction,ComponentPad*
%ADD11O,1.700000X2.700000*%
G04 #@! TD*
G04 #@! TA.AperFunction,SMDPad,CuDef*
%ADD12R,0.500000X2.250000*%
G04 #@! TD*
G04 #@! TA.AperFunction,SMDPad,CuDef*
%ADD13R,0.550000X1.500000*%
G04 #@! TD*
G04 #@! TA.AperFunction,SMDPad,CuDef*
%ADD14R,1.500000X0.550000*%
G04 #@! TD*
G04 #@! TA.AperFunction,SMDPad,CuDef*
%ADD15R,1.800000X1.100000*%
G04 #@! TD*
G04 #@! TA.AperFunction,ComponentPad*
%ADD16C,2.250000*%
G04 #@! TD*
G04 #@! TA.AperFunction,SMDPad,CuDef*
%ADD17R,1.200000X0.900000*%
G04 #@! TD*
G04 #@! TA.AperFunction,ViaPad*
%ADD18C,0.800000*%
G04 #@! TD*
G04 #@! TA.AperFunction,Conductor*
%ADD19C,0.381000*%
G04 #@! TD*
G04 #@! TA.AperFunction,Conductor*
%ADD20C,0.254000*%
G04 #@! TD*
G04 APERTURE END LIST*
D10*
X76687500Y-97687500D03*
X78887500Y-97687500D03*
X78887500Y-95987500D03*
X76687500Y-95987500D03*
D11*
X83726000Y-65278000D03*
X91026000Y-65278000D03*
X91026000Y-69778000D03*
X83726000Y-69778000D03*
D12*
X85776000Y-69778000D03*
X86576000Y-69778000D03*
X87376000Y-69778000D03*
X88176000Y-69778000D03*
X88976000Y-69778000D03*
D13*
X81787500Y-80025000D03*
X80987500Y-80025000D03*
X80187500Y-80025000D03*
X79387500Y-80025000D03*
X78587500Y-80025000D03*
X77787500Y-80025000D03*
X76987500Y-80025000D03*
X76187500Y-80025000D03*
X75387500Y-80025000D03*
X74587500Y-80025000D03*
X73787500Y-80025000D03*
D14*
X72087500Y-81725000D03*
X72087500Y-82525000D03*
X72087500Y-83325000D03*
X72087500Y-84125000D03*
X72087500Y-84925000D03*
X72087500Y-85725000D03*
X72087500Y-86525000D03*
X72087500Y-87325000D03*
X72087500Y-88125000D03*
X72087500Y-88925000D03*
X72087500Y-89725000D03*
D13*
X73787500Y-91425000D03*
X74587500Y-91425000D03*
X75387500Y-91425000D03*
X76187500Y-91425000D03*
X76987500Y-91425000D03*
X77787500Y-91425000D03*
X78587500Y-91425000D03*
X79387500Y-91425000D03*
X80187500Y-91425000D03*
X80987500Y-91425000D03*
X81787500Y-91425000D03*
D14*
X83487500Y-89725000D03*
X83487500Y-88925000D03*
X83487500Y-88125000D03*
X83487500Y-87325000D03*
X83487500Y-86525000D03*
X83487500Y-85725000D03*
X83487500Y-84925000D03*
X83487500Y-84125000D03*
X83487500Y-83325000D03*
X83487500Y-82525000D03*
X83487500Y-81725000D03*
D15*
X68187500Y-94718750D03*
X61987500Y-91018750D03*
X68187500Y-91018750D03*
X61987500Y-94718750D03*
G04 #@! TA.AperFunction,SMDPad,CuDef*
G36*
G01*
X66218750Y-80475000D02*
X67131250Y-80475000D01*
G75*
G02*
X67375000Y-80718750I0J-243750D01*
G01*
X67375000Y-81206250D01*
G75*
G02*
X67131250Y-81450000I-243750J0D01*
G01*
X66218750Y-81450000D01*
G75*
G02*
X65975000Y-81206250I0J243750D01*
G01*
X65975000Y-80718750D01*
G75*
G02*
X66218750Y-80475000I243750J0D01*
G01*
G37*
G04 #@! TD.AperFunction*
G04 #@! TA.AperFunction,SMDPad,CuDef*
G36*
G01*
X66218750Y-78600000D02*
X67131250Y-78600000D01*
G75*
G02*
X67375000Y-78843750I0J-243750D01*
G01*
X67375000Y-79331250D01*
G75*
G02*
X67131250Y-79575000I-243750J0D01*
G01*
X66218750Y-79575000D01*
G75*
G02*
X65975000Y-79331250I0J243750D01*
G01*
X65975000Y-78843750D01*
G75*
G02*
X66218750Y-78600000I243750J0D01*
G01*
G37*
G04 #@! TD.AperFunction*
G04 #@! TA.AperFunction,SMDPad,CuDef*
G36*
G01*
X91731250Y-86181250D02*
X91731250Y-85268750D01*
G75*
G02*
X91975000Y-85025000I243750J0D01*
G01*
X92462500Y-85025000D01*
G75*
G02*
X92706250Y-85268750I0J-243750D01*
G01*
X92706250Y-86181250D01*
G75*
G02*
X92462500Y-86425000I-243750J0D01*
G01*
X91975000Y-86425000D01*
G75*
G02*
X91731250Y-86181250I0J243750D01*
G01*
G37*
G04 #@! TD.AperFunction*
G04 #@! TA.AperFunction,SMDPad,CuDef*
G36*
G01*
X89856250Y-86181250D02*
X89856250Y-85268750D01*
G75*
G02*
X90100000Y-85025000I243750J0D01*
G01*
X90587500Y-85025000D01*
G75*
G02*
X90831250Y-85268750I0J-243750D01*
G01*
X90831250Y-86181250D01*
G75*
G02*
X90587500Y-86425000I-243750J0D01*
G01*
X90100000Y-86425000D01*
G75*
G02*
X89856250Y-86181250I0J243750D01*
G01*
G37*
G04 #@! TD.AperFunction*
G04 #@! TA.AperFunction,SMDPad,CuDef*
G36*
G01*
X91731250Y-88562500D02*
X91731250Y-87650000D01*
G75*
G02*
X91975000Y-87406250I243750J0D01*
G01*
X92462500Y-87406250D01*
G75*
G02*
X92706250Y-87650000I0J-243750D01*
G01*
X92706250Y-88562500D01*
G75*
G02*
X92462500Y-88806250I-243750J0D01*
G01*
X91975000Y-88806250D01*
G75*
G02*
X91731250Y-88562500I0J243750D01*
G01*
G37*
G04 #@! TD.AperFunction*
G04 #@! TA.AperFunction,SMDPad,CuDef*
G36*
G01*
X89856250Y-88562500D02*
X89856250Y-87650000D01*
G75*
G02*
X90100000Y-87406250I243750J0D01*
G01*
X90587500Y-87406250D01*
G75*
G02*
X90831250Y-87650000I0J-243750D01*
G01*
X90831250Y-88562500D01*
G75*
G02*
X90587500Y-88806250I-243750J0D01*
G01*
X90100000Y-88806250D01*
G75*
G02*
X89856250Y-88562500I0J243750D01*
G01*
G37*
G04 #@! TD.AperFunction*
G04 #@! TA.AperFunction,SMDPad,CuDef*
G36*
G01*
X67918750Y-88562500D02*
X67918750Y-87650000D01*
G75*
G02*
X68162500Y-87406250I243750J0D01*
G01*
X68650000Y-87406250D01*
G75*
G02*
X68893750Y-87650000I0J-243750D01*
G01*
X68893750Y-88562500D01*
G75*
G02*
X68650000Y-88806250I-243750J0D01*
G01*
X68162500Y-88806250D01*
G75*
G02*
X67918750Y-88562500I0J243750D01*
G01*
G37*
G04 #@! TD.AperFunction*
G04 #@! TA.AperFunction,SMDPad,CuDef*
G36*
G01*
X66043750Y-88562500D02*
X66043750Y-87650000D01*
G75*
G02*
X66287500Y-87406250I243750J0D01*
G01*
X66775000Y-87406250D01*
G75*
G02*
X67018750Y-87650000I0J-243750D01*
G01*
X67018750Y-88562500D01*
G75*
G02*
X66775000Y-88806250I-243750J0D01*
G01*
X66287500Y-88806250D01*
G75*
G02*
X66043750Y-88562500I0J243750D01*
G01*
G37*
G04 #@! TD.AperFunction*
D16*
X129262500Y-88075000D03*
G04 #@! TA.AperFunction,ComponentPad*
G36*
G01*
X127201183Y-90372345D02*
X127201183Y-90372345D01*
G75*
G02*
X127115155Y-88783683I751317J837345D01*
G01*
X128425157Y-87323683D01*
G75*
G02*
X130013819Y-87237655I837345J-751317D01*
G01*
X130013819Y-87237655D01*
G75*
G02*
X130099847Y-88826317I-751317J-837345D01*
G01*
X128789845Y-90286317D01*
G75*
G02*
X127201183Y-90372345I-837345J751317D01*
G01*
G37*
G04 #@! TD.AperFunction*
X134302500Y-86995000D03*
G04 #@! TA.AperFunction,ComponentPad*
G36*
G01*
X134185097Y-88697334D02*
X134185097Y-88697334D01*
G75*
G02*
X133140166Y-87497597I77403J1122334D01*
G01*
X133180166Y-86917597D01*
G75*
G02*
X134379903Y-85872666I1122334J-77403D01*
G01*
X134379903Y-85872666D01*
G75*
G02*
X135424834Y-87072403I-77403J-1122334D01*
G01*
X135384834Y-87652403D01*
G75*
G02*
X134185097Y-88697334I-1122334J77403D01*
G01*
G37*
G04 #@! TD.AperFunction*
X110212500Y-88075000D03*
G04 #@! TA.AperFunction,ComponentPad*
G36*
G01*
X108151183Y-90372345D02*
X108151183Y-90372345D01*
G75*
G02*
X108065155Y-88783683I751317J837345D01*
G01*
X109375157Y-87323683D01*
G75*
G02*
X110963819Y-87237655I837345J-751317D01*
G01*
X110963819Y-87237655D01*
G75*
G02*
X111049847Y-88826317I-751317J-837345D01*
G01*
X109739845Y-90286317D01*
G75*
G02*
X108151183Y-90372345I-837345J751317D01*
G01*
G37*
G04 #@! TD.AperFunction*
X115252500Y-86995000D03*
G04 #@! TA.AperFunction,ComponentPad*
G36*
G01*
X115135097Y-88697334D02*
X115135097Y-88697334D01*
G75*
G02*
X114090166Y-87497597I77403J1122334D01*
G01*
X114130166Y-86917597D01*
G75*
G02*
X115329903Y-85872666I1122334J-77403D01*
G01*
X115329903Y-85872666D01*
G75*
G02*
X116374834Y-87072403I-77403J-1122334D01*
G01*
X116334834Y-87652403D01*
G75*
G02*
X115135097Y-88697334I-1122334J77403D01*
G01*
G37*
G04 #@! TD.AperFunction*
X129262500Y-69025000D03*
G04 #@! TA.AperFunction,ComponentPad*
G36*
G01*
X127201183Y-71322345D02*
X127201183Y-71322345D01*
G75*
G02*
X127115155Y-69733683I751317J837345D01*
G01*
X128425157Y-68273683D01*
G75*
G02*
X130013819Y-68187655I837345J-751317D01*
G01*
X130013819Y-68187655D01*
G75*
G02*
X130099847Y-69776317I-751317J-837345D01*
G01*
X128789845Y-71236317D01*
G75*
G02*
X127201183Y-71322345I-837345J751317D01*
G01*
G37*
G04 #@! TD.AperFunction*
X134302500Y-67945000D03*
G04 #@! TA.AperFunction,ComponentPad*
G36*
G01*
X134185097Y-69647334D02*
X134185097Y-69647334D01*
G75*
G02*
X133140166Y-68447597I77403J1122334D01*
G01*
X133180166Y-67867597D01*
G75*
G02*
X134379903Y-66822666I1122334J-77403D01*
G01*
X134379903Y-66822666D01*
G75*
G02*
X135424834Y-68022403I-77403J-1122334D01*
G01*
X135384834Y-68602403D01*
G75*
G02*
X134185097Y-69647334I-1122334J77403D01*
G01*
G37*
G04 #@! TD.AperFunction*
X110212500Y-69025000D03*
G04 #@! TA.AperFunction,ComponentPad*
G36*
G01*
X108151183Y-71322345D02*
X108151183Y-71322345D01*
G75*
G02*
X108065155Y-69733683I751317J837345D01*
G01*
X109375157Y-68273683D01*
G75*
G02*
X110963819Y-68187655I837345J-751317D01*
G01*
X110963819Y-68187655D01*
G75*
G02*
X111049847Y-69776317I-751317J-837345D01*
G01*
X109739845Y-71236317D01*
G75*
G02*
X108151183Y-71322345I-837345J751317D01*
G01*
G37*
G04 #@! TD.AperFunction*
X115252500Y-67945000D03*
G04 #@! TA.AperFunction,ComponentPad*
G36*
G01*
X115135097Y-69647334D02*
X115135097Y-69647334D01*
G75*
G02*
X114090166Y-68447597I77403J1122334D01*
G01*
X114130166Y-67867597D01*
G75*
G02*
X115329903Y-66822666I1122334J-77403D01*
G01*
X115329903Y-66822666D01*
G75*
G02*
X116374834Y-68022403I-77403J-1122334D01*
G01*
X116334834Y-68602403D01*
G75*
G02*
X115135097Y-69647334I-1122334J77403D01*
G01*
G37*
G04 #@! TD.AperFunction*
G04 #@! TA.AperFunction,SMDPad,CuDef*
G36*
G01*
X88027000Y-79079250D02*
X88027000Y-77829250D01*
G75*
G02*
X88277000Y-77579250I250000J0D01*
G01*
X89027000Y-77579250D01*
G75*
G02*
X89277000Y-77829250I0J-250000D01*
G01*
X89277000Y-79079250D01*
G75*
G02*
X89027000Y-79329250I-250000J0D01*
G01*
X88277000Y-79329250D01*
G75*
G02*
X88027000Y-79079250I0J250000D01*
G01*
G37*
G04 #@! TD.AperFunction*
G04 #@! TA.AperFunction,SMDPad,CuDef*
G36*
G01*
X85227000Y-79079250D02*
X85227000Y-77829250D01*
G75*
G02*
X85477000Y-77579250I250000J0D01*
G01*
X86227000Y-77579250D01*
G75*
G02*
X86477000Y-77829250I0J-250000D01*
G01*
X86477000Y-79079250D01*
G75*
G02*
X86227000Y-79329250I-250000J0D01*
G01*
X85477000Y-79329250D01*
G75*
G02*
X85227000Y-79079250I0J250000D01*
G01*
G37*
G04 #@! TD.AperFunction*
D17*
X139700000Y-91218750D03*
X139700000Y-94518750D03*
X120650000Y-91281250D03*
X120650000Y-94581250D03*
X139700000Y-72168750D03*
X139700000Y-75468750D03*
X120650000Y-72168750D03*
X120650000Y-75468750D03*
G04 #@! TA.AperFunction,SMDPad,CuDef*
G36*
G01*
X86856250Y-91731250D02*
X87768750Y-91731250D01*
G75*
G02*
X88012500Y-91975000I0J-243750D01*
G01*
X88012500Y-92462500D01*
G75*
G02*
X87768750Y-92706250I-243750J0D01*
G01*
X86856250Y-92706250D01*
G75*
G02*
X86612500Y-92462500I0J243750D01*
G01*
X86612500Y-91975000D01*
G75*
G02*
X86856250Y-91731250I243750J0D01*
G01*
G37*
G04 #@! TD.AperFunction*
G04 #@! TA.AperFunction,SMDPad,CuDef*
G36*
G01*
X86856250Y-89856250D02*
X87768750Y-89856250D01*
G75*
G02*
X88012500Y-90100000I0J-243750D01*
G01*
X88012500Y-90587500D01*
G75*
G02*
X87768750Y-90831250I-243750J0D01*
G01*
X86856250Y-90831250D01*
G75*
G02*
X86612500Y-90587500I0J243750D01*
G01*
X86612500Y-90100000D01*
G75*
G02*
X86856250Y-89856250I243750J0D01*
G01*
G37*
G04 #@! TD.AperFunction*
G04 #@! TA.AperFunction,SMDPad,CuDef*
G36*
G01*
X83006250Y-96387500D02*
X82093750Y-96387500D01*
G75*
G02*
X81850000Y-96143750I0J243750D01*
G01*
X81850000Y-95656250D01*
G75*
G02*
X82093750Y-95412500I243750J0D01*
G01*
X83006250Y-95412500D01*
G75*
G02*
X83250000Y-95656250I0J-243750D01*
G01*
X83250000Y-96143750D01*
G75*
G02*
X83006250Y-96387500I-243750J0D01*
G01*
G37*
G04 #@! TD.AperFunction*
G04 #@! TA.AperFunction,SMDPad,CuDef*
G36*
G01*
X83006250Y-98262500D02*
X82093750Y-98262500D01*
G75*
G02*
X81850000Y-98018750I0J243750D01*
G01*
X81850000Y-97531250D01*
G75*
G02*
X82093750Y-97287500I243750J0D01*
G01*
X83006250Y-97287500D01*
G75*
G02*
X83250000Y-97531250I0J-243750D01*
G01*
X83250000Y-98018750D01*
G75*
G02*
X83006250Y-98262500I-243750J0D01*
G01*
G37*
G04 #@! TD.AperFunction*
G04 #@! TA.AperFunction,SMDPad,CuDef*
G36*
G01*
X72568750Y-97287500D02*
X73481250Y-97287500D01*
G75*
G02*
X73725000Y-97531250I0J-243750D01*
G01*
X73725000Y-98018750D01*
G75*
G02*
X73481250Y-98262500I-243750J0D01*
G01*
X72568750Y-98262500D01*
G75*
G02*
X72325000Y-98018750I0J243750D01*
G01*
X72325000Y-97531250D01*
G75*
G02*
X72568750Y-97287500I243750J0D01*
G01*
G37*
G04 #@! TD.AperFunction*
G04 #@! TA.AperFunction,SMDPad,CuDef*
G36*
G01*
X72568750Y-95412500D02*
X73481250Y-95412500D01*
G75*
G02*
X73725000Y-95656250I0J-243750D01*
G01*
X73725000Y-96143750D01*
G75*
G02*
X73481250Y-96387500I-243750J0D01*
G01*
X72568750Y-96387500D01*
G75*
G02*
X72325000Y-96143750I0J243750D01*
G01*
X72325000Y-95656250D01*
G75*
G02*
X72568750Y-95412500I243750J0D01*
G01*
G37*
G04 #@! TD.AperFunction*
G04 #@! TA.AperFunction,SMDPad,CuDef*
G36*
G01*
X96387500Y-81300000D02*
X96387500Y-82212500D01*
G75*
G02*
X96143750Y-82456250I-243750J0D01*
G01*
X95656250Y-82456250D01*
G75*
G02*
X95412500Y-82212500I0J243750D01*
G01*
X95412500Y-81300000D01*
G75*
G02*
X95656250Y-81056250I243750J0D01*
G01*
X96143750Y-81056250D01*
G75*
G02*
X96387500Y-81300000I0J-243750D01*
G01*
G37*
G04 #@! TD.AperFunction*
G04 #@! TA.AperFunction,SMDPad,CuDef*
G36*
G01*
X98262500Y-81300000D02*
X98262500Y-82212500D01*
G75*
G02*
X98018750Y-82456250I-243750J0D01*
G01*
X97531250Y-82456250D01*
G75*
G02*
X97287500Y-82212500I0J243750D01*
G01*
X97287500Y-81300000D01*
G75*
G02*
X97531250Y-81056250I243750J0D01*
G01*
X98018750Y-81056250D01*
G75*
G02*
X98262500Y-81300000I0J-243750D01*
G01*
G37*
G04 #@! TD.AperFunction*
G04 #@! TA.AperFunction,SMDPad,CuDef*
G36*
G01*
X96531250Y-88443750D02*
X96531250Y-89356250D01*
G75*
G02*
X96287500Y-89600000I-243750J0D01*
G01*
X95800000Y-89600000D01*
G75*
G02*
X95556250Y-89356250I0J243750D01*
G01*
X95556250Y-88443750D01*
G75*
G02*
X95800000Y-88200000I243750J0D01*
G01*
X96287500Y-88200000D01*
G75*
G02*
X96531250Y-88443750I0J-243750D01*
G01*
G37*
G04 #@! TD.AperFunction*
G04 #@! TA.AperFunction,SMDPad,CuDef*
G36*
G01*
X98406250Y-88443750D02*
X98406250Y-89356250D01*
G75*
G02*
X98162500Y-89600000I-243750J0D01*
G01*
X97675000Y-89600000D01*
G75*
G02*
X97431250Y-89356250I0J243750D01*
G01*
X97431250Y-88443750D01*
G75*
G02*
X97675000Y-88200000I243750J0D01*
G01*
X98162500Y-88200000D01*
G75*
G02*
X98406250Y-88443750I0J-243750D01*
G01*
G37*
G04 #@! TD.AperFunction*
G04 #@! TA.AperFunction,SMDPad,CuDef*
G36*
G01*
X96243750Y-83681250D02*
X96243750Y-84593750D01*
G75*
G02*
X96000000Y-84837500I-243750J0D01*
G01*
X95512500Y-84837500D01*
G75*
G02*
X95268750Y-84593750I0J243750D01*
G01*
X95268750Y-83681250D01*
G75*
G02*
X95512500Y-83437500I243750J0D01*
G01*
X96000000Y-83437500D01*
G75*
G02*
X96243750Y-83681250I0J-243750D01*
G01*
G37*
G04 #@! TD.AperFunction*
G04 #@! TA.AperFunction,SMDPad,CuDef*
G36*
G01*
X98118750Y-83681250D02*
X98118750Y-84593750D01*
G75*
G02*
X97875000Y-84837500I-243750J0D01*
G01*
X97387500Y-84837500D01*
G75*
G02*
X97143750Y-84593750I0J243750D01*
G01*
X97143750Y-83681250D01*
G75*
G02*
X97387500Y-83437500I243750J0D01*
G01*
X97875000Y-83437500D01*
G75*
G02*
X98118750Y-83681250I0J-243750D01*
G01*
G37*
G04 #@! TD.AperFunction*
G04 #@! TA.AperFunction,SMDPad,CuDef*
G36*
G01*
X96387500Y-86062500D02*
X96387500Y-86975000D01*
G75*
G02*
X96143750Y-87218750I-243750J0D01*
G01*
X95656250Y-87218750D01*
G75*
G02*
X95412500Y-86975000I0J243750D01*
G01*
X95412500Y-86062500D01*
G75*
G02*
X95656250Y-85818750I243750J0D01*
G01*
X96143750Y-85818750D01*
G75*
G02*
X96387500Y-86062500I0J-243750D01*
G01*
G37*
G04 #@! TD.AperFunction*
G04 #@! TA.AperFunction,SMDPad,CuDef*
G36*
G01*
X98262500Y-86062500D02*
X98262500Y-86975000D01*
G75*
G02*
X98018750Y-87218750I-243750J0D01*
G01*
X97531250Y-87218750D01*
G75*
G02*
X97287500Y-86975000I0J243750D01*
G01*
X97287500Y-86062500D01*
G75*
G02*
X97531250Y-85818750I243750J0D01*
G01*
X98018750Y-85818750D01*
G75*
G02*
X98262500Y-86062500I0J-243750D01*
G01*
G37*
G04 #@! TD.AperFunction*
D18*
X78887500Y-94381500D03*
X83672500Y-94381500D03*
X94361000Y-81788000D03*
X91186000Y-81788000D03*
X92456000Y-91821000D03*
X85852000Y-91821000D03*
X85090000Y-88646000D03*
X86360000Y-82550000D03*
X94488000Y-75311000D03*
X85344000Y-75311000D03*
X61722000Y-85471000D03*
X69850000Y-84074000D03*
X92075000Y-72898000D03*
X69850000Y-73025000D03*
X64389000Y-85852000D03*
X70231731Y-84998274D03*
X100330000Y-78105000D03*
X69850000Y-72024997D03*
X64389000Y-86852003D03*
X69866553Y-86101582D03*
X75946000Y-93345000D03*
X81457968Y-93294032D03*
X85979000Y-85725000D03*
X85979000Y-84134500D03*
X87122000Y-85725000D03*
X87122000Y-83312000D03*
D19*
X76600000Y-97775000D02*
X76687500Y-97687500D01*
X74945000Y-97775000D02*
X76600000Y-97775000D01*
X73025000Y-97775000D02*
X74945000Y-97775000D01*
X83043000Y-96393000D02*
X82550000Y-95900000D01*
X84963000Y-96393000D02*
X83043000Y-96393000D01*
X84963000Y-99568000D02*
X84963000Y-96393000D01*
X74945000Y-97775000D02*
X76738000Y-99568000D01*
X76738000Y-99568000D02*
X84963000Y-99568000D01*
X84963000Y-94568250D02*
X87312500Y-92218750D01*
X84963000Y-96393000D02*
X84963000Y-94568250D01*
X78887500Y-95987500D02*
X78887500Y-94381500D01*
X84776250Y-94381500D02*
X84963000Y-94568250D01*
X83672500Y-94381500D02*
X84776250Y-94381500D01*
X79387500Y-92341500D02*
X79387500Y-91425000D01*
X81427500Y-94381500D02*
X79387500Y-92341500D01*
X84776250Y-94381500D02*
X81427500Y-94381500D01*
X96043750Y-86662500D02*
X95900000Y-86518750D01*
X96043750Y-88900000D02*
X96043750Y-86662500D01*
X95756250Y-86375000D02*
X95900000Y-86518750D01*
X95756250Y-84137500D02*
X95756250Y-86375000D01*
X95756250Y-81900000D02*
X95900000Y-81756250D01*
X95756250Y-84137500D02*
X95756250Y-81900000D01*
X95900000Y-81756250D02*
X94392750Y-81756250D01*
X94392750Y-81756250D02*
X94361000Y-81788000D01*
X88049000Y-84925000D02*
X83487500Y-84925000D01*
X91186000Y-81788000D02*
X88049000Y-84925000D01*
X80987500Y-83556000D02*
X80987500Y-80025000D01*
X82356500Y-84925000D02*
X80987500Y-83556000D01*
X83487500Y-84925000D02*
X82356500Y-84925000D01*
X77190598Y-83556000D02*
X80987500Y-83556000D01*
X74721999Y-80055999D02*
X74721999Y-81087401D01*
X74721999Y-81087401D02*
X77190598Y-83556000D01*
X74691000Y-80025000D02*
X74721999Y-80055999D01*
X74587500Y-80025000D02*
X74691000Y-80025000D01*
X74587500Y-79097098D02*
X74587500Y-80025000D01*
X74092375Y-78601973D02*
X74587500Y-79097098D01*
X67160527Y-78601973D02*
X74092375Y-78601973D01*
X66675000Y-79087500D02*
X67160527Y-78601973D01*
X77190598Y-85752902D02*
X77190598Y-83556000D01*
X73218500Y-89725000D02*
X77190598Y-85752902D01*
X72087500Y-89725000D02*
X73218500Y-89725000D01*
X61987500Y-95649750D02*
X61976000Y-95661250D01*
X61987500Y-94718750D02*
X61987500Y-95649750D01*
X61976000Y-95661250D02*
X61976000Y-99822000D01*
X76484000Y-99822000D02*
X76738000Y-99568000D01*
X61976000Y-99822000D02*
X76484000Y-99822000D01*
X79387500Y-87949804D02*
X77190598Y-85752902D01*
X79387500Y-91425000D02*
X79387500Y-87949804D01*
X95900000Y-79413066D02*
X95900000Y-81756250D01*
X88976000Y-72489066D02*
X95900000Y-79413066D01*
X88976000Y-69778000D02*
X88976000Y-72489066D01*
X68406250Y-88106250D02*
X69225000Y-88925000D01*
X82356500Y-86525000D02*
X83487500Y-86525000D01*
X80187500Y-88694000D02*
X82356500Y-86525000D01*
X80187500Y-91425000D02*
X80187500Y-88694000D01*
X84618500Y-82525000D02*
X85852000Y-81291500D01*
X85852000Y-81291500D02*
X85852000Y-78454250D01*
X83487500Y-82525000D02*
X84618500Y-82525000D01*
X84281250Y-80025000D02*
X85852000Y-78454250D01*
X81787500Y-80025000D02*
X84281250Y-80025000D01*
X73787500Y-80025000D02*
X73787500Y-88152902D01*
X97918750Y-86662500D02*
X97775000Y-86518750D01*
X97918750Y-88900000D02*
X97918750Y-86662500D01*
X97631250Y-81900000D02*
X97775000Y-81756250D01*
X97631250Y-84137500D02*
X97631250Y-81900000D01*
X97775000Y-84281250D02*
X97631250Y-84137500D01*
X97775000Y-86518750D02*
X97775000Y-84281250D01*
X97918750Y-88900000D02*
X94997750Y-91821000D01*
X94997750Y-91821000D02*
X92456000Y-91821000D01*
X84415402Y-86525000D02*
X83487500Y-86525000D01*
X85852000Y-87961598D02*
X84415402Y-86525000D01*
X85852000Y-91821000D02*
X85852000Y-87961598D01*
X73015402Y-88925000D02*
X72087500Y-88925000D01*
X73787500Y-88152902D02*
X73015402Y-88925000D01*
X71095000Y-88925000D02*
X72087500Y-88925000D01*
X69225000Y-88925000D02*
X71095000Y-88925000D01*
X86134501Y-75677999D02*
X81787500Y-80025000D01*
X86134501Y-74931559D02*
X86134501Y-75677999D01*
X65130480Y-84830480D02*
X65130480Y-78392973D01*
X68406250Y-88106250D02*
X65130480Y-84830480D01*
X69002954Y-74520499D02*
X85723441Y-74520499D01*
X65130480Y-78392973D02*
X69002954Y-74520499D01*
X85723441Y-74520499D02*
X86134501Y-74931559D01*
X85852000Y-87961598D02*
X85774402Y-87961598D01*
X85774402Y-87961598D02*
X85090000Y-88646000D01*
X85852000Y-82042000D02*
X85852000Y-81291500D01*
X86360000Y-82550000D02*
X85852000Y-82042000D01*
D20*
X76600000Y-95900000D02*
X76687500Y-95987500D01*
X73025000Y-95900000D02*
X76600000Y-95900000D01*
X77787500Y-94887500D02*
X77787500Y-91425000D01*
X76687500Y-95987500D02*
X77787500Y-94887500D01*
X78975000Y-97775000D02*
X78887500Y-97687500D01*
X78587500Y-92430500D02*
X78587500Y-91425000D01*
X80884000Y-94727000D02*
X78587500Y-92430500D01*
X80884000Y-97775000D02*
X80884000Y-94727000D01*
X80884000Y-97775000D02*
X78975000Y-97775000D01*
X82550000Y-97775000D02*
X80884000Y-97775000D01*
X83487500Y-85725000D02*
X84301102Y-85725000D01*
X84347270Y-85725000D02*
X83487500Y-85725000D01*
X87312500Y-88690230D02*
X84347270Y-85725000D01*
X87312500Y-90343750D02*
X87312500Y-88690230D01*
X119476250Y-72168750D02*
X115252500Y-67945000D01*
X120650000Y-72168750D02*
X119476250Y-72168750D01*
X120650000Y-75468750D02*
X139700000Y-75468750D01*
X120650000Y-75468750D02*
X94645750Y-75468750D01*
X94645750Y-75468750D02*
X94488000Y-75311000D01*
X68944322Y-75311000D02*
X85344000Y-75311000D01*
X65647990Y-78607332D02*
X68944322Y-75311000D01*
X72087500Y-86525000D02*
X70650887Y-86525000D01*
X70650887Y-86525000D02*
X70347304Y-86828583D01*
X65647990Y-82958981D02*
X65647990Y-78607332D01*
X69517592Y-86828583D02*
X65647990Y-82958981D01*
X70347304Y-86828583D02*
X69517592Y-86828583D01*
X137906250Y-72168750D02*
X134262500Y-68525000D01*
X139700000Y-72168750D02*
X137906250Y-72168750D01*
X118918750Y-91281250D02*
X115212500Y-87575000D01*
X120650000Y-91281250D02*
X118918750Y-91281250D01*
X139637500Y-94581250D02*
X139700000Y-94518750D01*
X120650000Y-94581250D02*
X139637500Y-94581250D01*
X120650000Y-94581250D02*
X102395750Y-94581250D01*
X61761641Y-100339510D02*
X59944000Y-98521869D01*
X102395750Y-94581250D02*
X96637490Y-100339510D01*
X96637490Y-100339510D02*
X61761641Y-100339510D01*
X59944000Y-98521869D02*
X59944000Y-87249000D01*
X59944000Y-87249000D02*
X61722000Y-85471000D01*
X72036500Y-84074000D02*
X72087500Y-84125000D01*
X69850000Y-84074000D02*
X72036500Y-84074000D01*
X138526250Y-91218750D02*
X134302500Y-86995000D01*
X139700000Y-91218750D02*
X138526250Y-91218750D01*
D19*
X85776000Y-71394868D02*
X85776000Y-69778000D01*
X88652000Y-74270868D02*
X85776000Y-71394868D01*
X88652000Y-78454250D02*
X88652000Y-74270868D01*
D20*
X92075000Y-73973962D02*
X92075000Y-72898000D01*
X108902500Y-89535000D02*
X107636038Y-89535000D01*
X107636038Y-89535000D02*
X92075000Y-73973962D01*
X69284315Y-73025000D02*
X64389000Y-77920315D01*
X69850000Y-73025000D02*
X69284315Y-73025000D01*
X64389000Y-77920315D02*
X64389000Y-85852000D01*
X72014226Y-84998274D02*
X72087500Y-84925000D01*
X70231731Y-84998274D02*
X72014226Y-84998274D01*
X127952500Y-89535000D02*
X116522500Y-78105000D01*
X116522500Y-78105000D02*
X100330000Y-78105000D01*
X69284315Y-72024997D02*
X63661999Y-77647313D01*
X69850000Y-72024997D02*
X69284315Y-72024997D01*
X64313041Y-86852003D02*
X64389000Y-86852003D01*
X63661999Y-77647313D02*
X63661999Y-86200961D01*
X63661999Y-86200961D02*
X64313041Y-86852003D01*
X70808820Y-85725000D02*
X72087500Y-85725000D01*
X70432238Y-86101582D02*
X70808820Y-85725000D01*
X69866553Y-86101582D02*
X70432238Y-86101582D01*
X66531250Y-89362500D02*
X68187500Y-91018750D01*
X66531250Y-88106250D02*
X66531250Y-89362500D01*
X68187500Y-91018750D02*
X70513750Y-93345000D01*
X70513750Y-93345000D02*
X75946000Y-93345000D01*
X80987500Y-92823564D02*
X80987500Y-91425000D01*
X81457968Y-93294032D02*
X80987500Y-92823564D01*
X87376000Y-71620934D02*
X92710000Y-76954934D01*
X87376000Y-69778000D02*
X87376000Y-71620934D01*
X92710000Y-77597000D02*
X93599000Y-78486000D01*
X92710000Y-76954934D02*
X92710000Y-77597000D01*
X93599000Y-86726000D02*
X92218750Y-88106250D01*
X93599000Y-78486000D02*
X93599000Y-86726000D01*
X90343750Y-88106250D02*
X88360250Y-88106250D01*
X88360250Y-88106250D02*
X85979000Y-85725000D01*
X85969500Y-84125000D02*
X85979000Y-84134500D01*
X83487500Y-84125000D02*
X85969500Y-84125000D01*
X86576000Y-69778000D02*
X86576000Y-71463000D01*
X92218750Y-77105750D02*
X92218750Y-85725000D01*
X86576000Y-71463000D02*
X92218750Y-77105750D01*
X90343750Y-85725000D02*
X87122000Y-85725000D01*
X83500500Y-83312000D02*
X83487500Y-83325000D01*
X87122000Y-83312000D02*
X83500500Y-83312000D01*
X71325000Y-80962500D02*
X72087500Y-81725000D01*
X66675000Y-80962500D02*
X71325000Y-80962500D01*
X83726000Y-69778000D02*
X83726000Y-65278000D01*
X91026000Y-65278000D02*
X91026000Y-69778000D01*
X83726000Y-65278000D02*
X91026000Y-65278000D01*
G36*
X77025500Y-94571869D02*
G01*
X76847941Y-94749428D01*
X75987500Y-94749428D01*
X75863018Y-94761688D01*
X75743320Y-94797998D01*
X75633006Y-94856963D01*
X75536315Y-94936315D01*
X75456963Y-95033006D01*
X75400842Y-95138000D01*
X74191203Y-95138000D01*
X74104792Y-95032708D01*
X73971164Y-94923042D01*
X73818709Y-94841553D01*
X73653285Y-94791372D01*
X73481250Y-94774428D01*
X72568750Y-94774428D01*
X72396715Y-94791372D01*
X72231291Y-94841553D01*
X72078836Y-94923042D01*
X71945208Y-95032708D01*
X71835542Y-95166336D01*
X71754053Y-95318791D01*
X71703872Y-95484215D01*
X71686928Y-95656250D01*
X71686928Y-96143750D01*
X71703872Y-96315785D01*
X71754053Y-96481209D01*
X71835542Y-96633664D01*
X71945208Y-96767292D01*
X71951564Y-96772508D01*
X71873815Y-96836315D01*
X71794463Y-96933006D01*
X71735498Y-97043320D01*
X71699188Y-97163018D01*
X71686928Y-97287500D01*
X71690000Y-97489250D01*
X71848750Y-97648000D01*
X72898000Y-97648000D01*
X72898000Y-97628000D01*
X73152000Y-97628000D01*
X73152000Y-97648000D01*
X74201250Y-97648000D01*
X74360000Y-97489250D01*
X74363072Y-97287500D01*
X74350812Y-97163018D01*
X74314502Y-97043320D01*
X74255537Y-96933006D01*
X74176185Y-96836315D01*
X74098436Y-96772508D01*
X74104792Y-96767292D01*
X74191203Y-96662000D01*
X75356765Y-96662000D01*
X75361688Y-96711982D01*
X75397998Y-96831680D01*
X75401109Y-96837500D01*
X75397998Y-96843320D01*
X75361688Y-96963018D01*
X75349428Y-97087500D01*
X75352500Y-97401750D01*
X75511250Y-97560500D01*
X76560500Y-97560500D01*
X76560500Y-97540500D01*
X76814500Y-97540500D01*
X76814500Y-97560500D01*
X76834500Y-97560500D01*
X76834500Y-97814500D01*
X76814500Y-97814500D01*
X76814500Y-98763750D01*
X76973250Y-98922500D01*
X77387500Y-98925572D01*
X77511982Y-98913312D01*
X77631680Y-98877002D01*
X77741994Y-98818037D01*
X77787500Y-98780691D01*
X77833006Y-98818037D01*
X77943320Y-98877002D01*
X78063018Y-98913312D01*
X78187500Y-98925572D01*
X79587500Y-98925572D01*
X79711982Y-98913312D01*
X79831680Y-98877002D01*
X79941994Y-98818037D01*
X80038685Y-98738685D01*
X80118037Y-98641994D01*
X80174158Y-98537000D01*
X80846574Y-98537000D01*
X80884000Y-98540686D01*
X80921425Y-98537000D01*
X81383797Y-98537000D01*
X81470208Y-98642292D01*
X81603836Y-98751958D01*
X81756291Y-98833447D01*
X81921715Y-98883628D01*
X82093750Y-98900572D01*
X83006250Y-98900572D01*
X83178285Y-98883628D01*
X83343709Y-98833447D01*
X83496164Y-98751958D01*
X83629792Y-98642292D01*
X83739458Y-98508664D01*
X83820947Y-98356209D01*
X83871128Y-98190785D01*
X83888072Y-98018750D01*
X83888072Y-97531250D01*
X83871128Y-97359215D01*
X83820947Y-97193791D01*
X83739458Y-97041336D01*
X83629792Y-96907708D01*
X83623436Y-96902492D01*
X83701185Y-96838685D01*
X83780537Y-96741994D01*
X83839502Y-96631680D01*
X83875812Y-96511982D01*
X83888072Y-96387500D01*
X83885000Y-96185750D01*
X83726250Y-96027000D01*
X82677000Y-96027000D01*
X82677000Y-96047000D01*
X82423000Y-96047000D01*
X82423000Y-96027000D01*
X82403000Y-96027000D01*
X82403000Y-95773000D01*
X82423000Y-95773000D01*
X82423000Y-94936250D01*
X82677000Y-94936250D01*
X82677000Y-95773000D01*
X83726250Y-95773000D01*
X83885000Y-95614250D01*
X83888072Y-95412500D01*
X83875812Y-95288018D01*
X83839502Y-95168320D01*
X83780537Y-95058006D01*
X83701185Y-94961315D01*
X83604494Y-94881963D01*
X83494180Y-94822998D01*
X83374482Y-94786688D01*
X83250000Y-94774428D01*
X82835750Y-94777500D01*
X82677000Y-94936250D01*
X82423000Y-94936250D01*
X82264250Y-94777500D01*
X81850000Y-94774428D01*
X81725518Y-94786688D01*
X81646000Y-94810810D01*
X81646000Y-94764422D01*
X81649686Y-94726999D01*
X81646000Y-94689574D01*
X81634974Y-94577622D01*
X81591402Y-94433985D01*
X81535303Y-94329032D01*
X81559907Y-94329032D01*
X81759866Y-94289258D01*
X81948224Y-94211237D01*
X82117742Y-94097969D01*
X82235711Y-93980000D01*
X85979000Y-93980000D01*
X85979000Y-99439901D01*
X71501000Y-99315090D01*
X71501000Y-98262500D01*
X71686928Y-98262500D01*
X71699188Y-98386982D01*
X71735498Y-98506680D01*
X71794463Y-98616994D01*
X71873815Y-98713685D01*
X71970506Y-98793037D01*
X72080820Y-98852002D01*
X72200518Y-98888312D01*
X72325000Y-98900572D01*
X72739250Y-98897500D01*
X72898000Y-98738750D01*
X72898000Y-97902000D01*
X73152000Y-97902000D01*
X73152000Y-98738750D01*
X73310750Y-98897500D01*
X73725000Y-98900572D01*
X73849482Y-98888312D01*
X73969180Y-98852002D01*
X74079494Y-98793037D01*
X74176185Y-98713685D01*
X74255537Y-98616994D01*
X74314502Y-98506680D01*
X74350812Y-98386982D01*
X74360609Y-98287500D01*
X75349428Y-98287500D01*
X75361688Y-98411982D01*
X75397998Y-98531680D01*
X75456963Y-98641994D01*
X75536315Y-98738685D01*
X75633006Y-98818037D01*
X75743320Y-98877002D01*
X75863018Y-98913312D01*
X75987500Y-98925572D01*
X76401750Y-98922500D01*
X76560500Y-98763750D01*
X76560500Y-97814500D01*
X75511250Y-97814500D01*
X75352500Y-97973250D01*
X75349428Y-98287500D01*
X74360609Y-98287500D01*
X74363072Y-98262500D01*
X74360000Y-98060750D01*
X74201250Y-97902000D01*
X73152000Y-97902000D01*
X72898000Y-97902000D01*
X71848750Y-97902000D01*
X71690000Y-98060750D01*
X71686928Y-98262500D01*
X71501000Y-98262500D01*
X71501000Y-94107000D01*
X75244289Y-94107000D01*
X75286226Y-94148937D01*
X75455744Y-94262205D01*
X75644102Y-94340226D01*
X75844061Y-94380000D01*
X76047939Y-94380000D01*
X76247898Y-94340226D01*
X76436256Y-94262205D01*
X76605774Y-94148937D01*
X76749937Y-94004774D01*
X76766490Y-93980000D01*
X77025500Y-93980000D01*
X77025500Y-94571869D01*
G37*
X77025500Y-94571869D02*
X76847941Y-94749428D01*
X75987500Y-94749428D01*
X75863018Y-94761688D01*
X75743320Y-94797998D01*
X75633006Y-94856963D01*
X75536315Y-94936315D01*
X75456963Y-95033006D01*
X75400842Y-95138000D01*
X74191203Y-95138000D01*
X74104792Y-95032708D01*
X73971164Y-94923042D01*
X73818709Y-94841553D01*
X73653285Y-94791372D01*
X73481250Y-94774428D01*
X72568750Y-94774428D01*
X72396715Y-94791372D01*
X72231291Y-94841553D01*
X72078836Y-94923042D01*
X71945208Y-95032708D01*
X71835542Y-95166336D01*
X71754053Y-95318791D01*
X71703872Y-95484215D01*
X71686928Y-95656250D01*
X71686928Y-96143750D01*
X71703872Y-96315785D01*
X71754053Y-96481209D01*
X71835542Y-96633664D01*
X71945208Y-96767292D01*
X71951564Y-96772508D01*
X71873815Y-96836315D01*
X71794463Y-96933006D01*
X71735498Y-97043320D01*
X71699188Y-97163018D01*
X71686928Y-97287500D01*
X71690000Y-97489250D01*
X71848750Y-97648000D01*
X72898000Y-97648000D01*
X72898000Y-97628000D01*
X73152000Y-97628000D01*
X73152000Y-97648000D01*
X74201250Y-97648000D01*
X74360000Y-97489250D01*
X74363072Y-97287500D01*
X74350812Y-97163018D01*
X74314502Y-97043320D01*
X74255537Y-96933006D01*
X74176185Y-96836315D01*
X74098436Y-96772508D01*
X74104792Y-96767292D01*
X74191203Y-96662000D01*
X75356765Y-96662000D01*
X75361688Y-96711982D01*
X75397998Y-96831680D01*
X75401109Y-96837500D01*
X75397998Y-96843320D01*
X75361688Y-96963018D01*
X75349428Y-97087500D01*
X75352500Y-97401750D01*
X75511250Y-97560500D01*
X76560500Y-97560500D01*
X76560500Y-97540500D01*
X76814500Y-97540500D01*
X76814500Y-97560500D01*
X76834500Y-97560500D01*
X76834500Y-97814500D01*
X76814500Y-97814500D01*
X76814500Y-98763750D01*
X76973250Y-98922500D01*
X77387500Y-98925572D01*
X77511982Y-98913312D01*
X77631680Y-98877002D01*
X77741994Y-98818037D01*
X77787500Y-98780691D01*
X77833006Y-98818037D01*
X77943320Y-98877002D01*
X78063018Y-98913312D01*
X78187500Y-98925572D01*
X79587500Y-98925572D01*
X79711982Y-98913312D01*
X79831680Y-98877002D01*
X79941994Y-98818037D01*
X80038685Y-98738685D01*
X80118037Y-98641994D01*
X80174158Y-98537000D01*
X80846574Y-98537000D01*
X80884000Y-98540686D01*
X80921425Y-98537000D01*
X81383797Y-98537000D01*
X81470208Y-98642292D01*
X81603836Y-98751958D01*
X81756291Y-98833447D01*
X81921715Y-98883628D01*
X82093750Y-98900572D01*
X83006250Y-98900572D01*
X83178285Y-98883628D01*
X83343709Y-98833447D01*
X83496164Y-98751958D01*
X83629792Y-98642292D01*
X83739458Y-98508664D01*
X83820947Y-98356209D01*
X83871128Y-98190785D01*
X83888072Y-98018750D01*
X83888072Y-97531250D01*
X83871128Y-97359215D01*
X83820947Y-97193791D01*
X83739458Y-97041336D01*
X83629792Y-96907708D01*
X83623436Y-96902492D01*
X83701185Y-96838685D01*
X83780537Y-96741994D01*
X83839502Y-96631680D01*
X83875812Y-96511982D01*
X83888072Y-96387500D01*
X83885000Y-96185750D01*
X83726250Y-96027000D01*
X82677000Y-96027000D01*
X82677000Y-96047000D01*
X82423000Y-96047000D01*
X82423000Y-96027000D01*
X82403000Y-96027000D01*
X82403000Y-95773000D01*
X82423000Y-95773000D01*
X82423000Y-94936250D01*
X82677000Y-94936250D01*
X82677000Y-95773000D01*
X83726250Y-95773000D01*
X83885000Y-95614250D01*
X83888072Y-95412500D01*
X83875812Y-95288018D01*
X83839502Y-95168320D01*
X83780537Y-95058006D01*
X83701185Y-94961315D01*
X83604494Y-94881963D01*
X83494180Y-94822998D01*
X83374482Y-94786688D01*
X83250000Y-94774428D01*
X82835750Y-94777500D01*
X82677000Y-94936250D01*
X82423000Y-94936250D01*
X82264250Y-94777500D01*
X81850000Y-94774428D01*
X81725518Y-94786688D01*
X81646000Y-94810810D01*
X81646000Y-94764422D01*
X81649686Y-94726999D01*
X81646000Y-94689574D01*
X81634974Y-94577622D01*
X81591402Y-94433985D01*
X81535303Y-94329032D01*
X81559907Y-94329032D01*
X81759866Y-94289258D01*
X81948224Y-94211237D01*
X82117742Y-94097969D01*
X82235711Y-93980000D01*
X85979000Y-93980000D01*
X85979000Y-99439901D01*
X71501000Y-99315090D01*
X71501000Y-98262500D01*
X71686928Y-98262500D01*
X71699188Y-98386982D01*
X71735498Y-98506680D01*
X71794463Y-98616994D01*
X71873815Y-98713685D01*
X71970506Y-98793037D01*
X72080820Y-98852002D01*
X72200518Y-98888312D01*
X72325000Y-98900572D01*
X72739250Y-98897500D01*
X72898000Y-98738750D01*
X72898000Y-97902000D01*
X73152000Y-97902000D01*
X73152000Y-98738750D01*
X73310750Y-98897500D01*
X73725000Y-98900572D01*
X73849482Y-98888312D01*
X73969180Y-98852002D01*
X74079494Y-98793037D01*
X74176185Y-98713685D01*
X74255537Y-98616994D01*
X74314502Y-98506680D01*
X74350812Y-98386982D01*
X74360609Y-98287500D01*
X75349428Y-98287500D01*
X75361688Y-98411982D01*
X75397998Y-98531680D01*
X75456963Y-98641994D01*
X75536315Y-98738685D01*
X75633006Y-98818037D01*
X75743320Y-98877002D01*
X75863018Y-98913312D01*
X75987500Y-98925572D01*
X76401750Y-98922500D01*
X76560500Y-98763750D01*
X76560500Y-97814500D01*
X75511250Y-97814500D01*
X75352500Y-97973250D01*
X75349428Y-98287500D01*
X74360609Y-98287500D01*
X74363072Y-98262500D01*
X74360000Y-98060750D01*
X74201250Y-97902000D01*
X73152000Y-97902000D01*
X72898000Y-97902000D01*
X71848750Y-97902000D01*
X71690000Y-98060750D01*
X71686928Y-98262500D01*
X71501000Y-98262500D01*
X71501000Y-94107000D01*
X75244289Y-94107000D01*
X75286226Y-94148937D01*
X75455744Y-94262205D01*
X75644102Y-94340226D01*
X75844061Y-94380000D01*
X76047939Y-94380000D01*
X76247898Y-94340226D01*
X76436256Y-94262205D01*
X76605774Y-94148937D01*
X76749937Y-94004774D01*
X76766490Y-93980000D01*
X77025500Y-93980000D01*
X77025500Y-94571869D01*
G36*
X79929831Y-94850461D02*
G01*
X79831680Y-94797998D01*
X79711982Y-94761688D01*
X79587500Y-94749428D01*
X79173250Y-94752500D01*
X79014500Y-94911250D01*
X79014500Y-95860500D01*
X79034500Y-95860500D01*
X79034500Y-96114500D01*
X79014500Y-96114500D01*
X79014500Y-96134500D01*
X78760500Y-96134500D01*
X78760500Y-96114500D01*
X78740500Y-96114500D01*
X78740500Y-95860500D01*
X78760500Y-95860500D01*
X78760500Y-94911250D01*
X78601750Y-94752500D01*
X78549500Y-94752113D01*
X78549500Y-93980000D01*
X79059370Y-93980000D01*
X79929831Y-94850461D01*
G37*
X79929831Y-94850461D02*
X79831680Y-94797998D01*
X79711982Y-94761688D01*
X79587500Y-94749428D01*
X79173250Y-94752500D01*
X79014500Y-94911250D01*
X79014500Y-95860500D01*
X79034500Y-95860500D01*
X79034500Y-96114500D01*
X79014500Y-96114500D01*
X79014500Y-96134500D01*
X78760500Y-96134500D01*
X78760500Y-96114500D01*
X78740500Y-96114500D01*
X78740500Y-95860500D01*
X78760500Y-95860500D01*
X78760500Y-94911250D01*
X78601750Y-94752500D01*
X78549500Y-94752113D01*
X78549500Y-93980000D01*
X79059370Y-93980000D01*
X79929831Y-94850461D01*
G36*
X89562487Y-66069110D02*
G01*
X89647401Y-66349033D01*
X89785294Y-66607013D01*
X89970866Y-66833134D01*
X90196986Y-67018706D01*
X90264000Y-67054526D01*
X90264001Y-68001475D01*
X90196987Y-68037294D01*
X89970867Y-68222866D01*
X89816123Y-68411421D01*
X89760406Y-68304366D01*
X89682123Y-68206807D01*
X89586311Y-68126396D01*
X89476652Y-68066221D01*
X89357361Y-68028596D01*
X89257750Y-68018000D01*
X89099000Y-68176750D01*
X89099000Y-69651000D01*
X89123000Y-69651000D01*
X89123000Y-69905000D01*
X89099000Y-69905000D01*
X89099000Y-71379250D01*
X89257750Y-71538000D01*
X89357361Y-71527404D01*
X89476652Y-71489779D01*
X89586311Y-71429604D01*
X89682123Y-71349193D01*
X89760406Y-71251634D01*
X89816123Y-71144578D01*
X89970866Y-71333134D01*
X90196986Y-71518706D01*
X90401461Y-71628000D01*
X88460696Y-71628000D01*
X88373768Y-71541072D01*
X88426000Y-71541072D01*
X88550482Y-71528812D01*
X88575266Y-71521294D01*
X88594639Y-71527404D01*
X88694250Y-71538000D01*
X88853000Y-71379250D01*
X88853000Y-71374033D01*
X88877185Y-71354185D01*
X88956537Y-71257494D01*
X89015502Y-71147180D01*
X89051812Y-71027482D01*
X89064072Y-70903000D01*
X89064072Y-68653000D01*
X89051812Y-68528518D01*
X89015502Y-68408820D01*
X88956537Y-68298506D01*
X88877185Y-68201815D01*
X88853000Y-68181967D01*
X88853000Y-68176750D01*
X88694250Y-68018000D01*
X88594639Y-68028596D01*
X88575266Y-68034706D01*
X88550482Y-68027188D01*
X88426000Y-68014928D01*
X87926000Y-68014928D01*
X87801518Y-68027188D01*
X87776000Y-68034929D01*
X87750482Y-68027188D01*
X87626000Y-68014928D01*
X87126000Y-68014928D01*
X87001518Y-68027188D01*
X86976000Y-68034929D01*
X86950482Y-68027188D01*
X86826000Y-68014928D01*
X86326000Y-68014928D01*
X86201518Y-68027188D01*
X86176000Y-68034929D01*
X86150482Y-68027188D01*
X86026000Y-68014928D01*
X85526000Y-68014928D01*
X85401518Y-68027188D01*
X85281820Y-68063498D01*
X85171506Y-68122463D01*
X85074815Y-68201815D01*
X84995463Y-68298506D01*
X84936498Y-68408820D01*
X84935754Y-68411271D01*
X84781134Y-68222866D01*
X84555014Y-68037294D01*
X84488000Y-68001474D01*
X84488000Y-67054525D01*
X84555013Y-67018706D01*
X84781134Y-66833134D01*
X84966706Y-66607014D01*
X85104599Y-66349034D01*
X85189513Y-66069111D01*
X85192380Y-66040000D01*
X89559620Y-66040000D01*
X89562487Y-66069110D01*
G37*
X89562487Y-66069110D02*
X89647401Y-66349033D01*
X89785294Y-66607013D01*
X89970866Y-66833134D01*
X90196986Y-67018706D01*
X90264000Y-67054526D01*
X90264001Y-68001475D01*
X90196987Y-68037294D01*
X89970867Y-68222866D01*
X89816123Y-68411421D01*
X89760406Y-68304366D01*
X89682123Y-68206807D01*
X89586311Y-68126396D01*
X89476652Y-68066221D01*
X89357361Y-68028596D01*
X89257750Y-68018000D01*
X89099000Y-68176750D01*
X89099000Y-69651000D01*
X89123000Y-69651000D01*
X89123000Y-69905000D01*
X89099000Y-69905000D01*
X89099000Y-71379250D01*
X89257750Y-71538000D01*
X89357361Y-71527404D01*
X89476652Y-71489779D01*
X89586311Y-71429604D01*
X89682123Y-71349193D01*
X89760406Y-71251634D01*
X89816123Y-71144578D01*
X89970866Y-71333134D01*
X90196986Y-71518706D01*
X90401461Y-71628000D01*
X88460696Y-71628000D01*
X88373768Y-71541072D01*
X88426000Y-71541072D01*
X88550482Y-71528812D01*
X88575266Y-71521294D01*
X88594639Y-71527404D01*
X88694250Y-71538000D01*
X88853000Y-71379250D01*
X88853000Y-71374033D01*
X88877185Y-71354185D01*
X88956537Y-71257494D01*
X89015502Y-71147180D01*
X89051812Y-71027482D01*
X89064072Y-70903000D01*
X89064072Y-68653000D01*
X89051812Y-68528518D01*
X89015502Y-68408820D01*
X88956537Y-68298506D01*
X88877185Y-68201815D01*
X88853000Y-68181967D01*
X88853000Y-68176750D01*
X88694250Y-68018000D01*
X88594639Y-68028596D01*
X88575266Y-68034706D01*
X88550482Y-68027188D01*
X88426000Y-68014928D01*
X87926000Y-68014928D01*
X87801518Y-68027188D01*
X87776000Y-68034929D01*
X87750482Y-68027188D01*
X87626000Y-68014928D01*
X87126000Y-68014928D01*
X87001518Y-68027188D01*
X86976000Y-68034929D01*
X86950482Y-68027188D01*
X86826000Y-68014928D01*
X86326000Y-68014928D01*
X86201518Y-68027188D01*
X86176000Y-68034929D01*
X86150482Y-68027188D01*
X86026000Y-68014928D01*
X85526000Y-68014928D01*
X85401518Y-68027188D01*
X85281820Y-68063498D01*
X85171506Y-68122463D01*
X85074815Y-68201815D01*
X84995463Y-68298506D01*
X84936498Y-68408820D01*
X84935754Y-68411271D01*
X84781134Y-68222866D01*
X84555014Y-68037294D01*
X84488000Y-68001474D01*
X84488000Y-67054525D01*
X84555013Y-67018706D01*
X84781134Y-66833134D01*
X84966706Y-66607014D01*
X85104599Y-66349034D01*
X85189513Y-66069111D01*
X85192380Y-66040000D01*
X89559620Y-66040000D01*
X89562487Y-66069110D01*
M02*
