M48
; DRILL file {KiCad (5.1.6)-1} date 07/09/20 12:27:58
; FORMAT={-:-/ absolute / inch / decimal}
; #@! TF.CreationDate,2020-07-09T12:27:58-07:00
; #@! TF.GenerationSoftware,Kicad,Pcbnew,(5.1.6)-1
; #@! TF.FileFunction,Plated,1,2,PTH
FMAT,2
INCH
T1C0.0157
T2C0.0276
T3C0.0579
%
G90
G05
T1
X2.43Y-3.365
X2.535Y-3.38
X2.535Y-3.4194
X2.75Y-2.8356
X2.75Y-2.875
X2.75Y-3.31
X2.7507Y-3.3898
X2.765Y-3.3464
X2.99Y-3.675
X3.1058Y-3.7158
X3.207Y-3.673
X3.2942Y-3.7158
X3.35Y-3.49
X3.36Y-2.965
X3.38Y-3.615
X3.385Y-3.3124
X3.385Y-3.375
X3.4Y-3.25
X3.43Y-3.28
X3.43Y-3.375
X3.59Y-3.22
X3.625Y-2.87
X3.64Y-3.615
X3.715Y-3.22
X3.72Y-2.965
X3.95Y-3.075
T3
X4.2875Y-3.525
X4.3391Y-3.4675
X4.5359Y-3.4478
X4.5375Y-3.425
X5.0375Y-2.775
X5.0891Y-2.7175
X5.2859Y-2.6978
X5.2875Y-2.675
X4.2875Y-2.775
X4.3391Y-2.7175
X4.5359Y-2.6978
X4.5375Y-2.675
X5.0375Y-3.525
X5.0891Y-3.4675
X5.2859Y-3.4478
X5.2875Y-3.425
T2
G00X3.2963Y-2.5464
M15
G01X3.2963Y-2.5936
M16
G05
G00X3.2963Y-2.7235
M15
G01X3.2963Y-2.7708
M16
G05
G00X3.5837Y-2.5464
M15
G01X3.5837Y-2.5936
M16
G05
G00X3.5837Y-2.7235
M15
G01X3.5837Y-2.7708
M16
G05
T0
M30
